<mxfile host="app.diagrams.net" agent="Mozilla/5.0 (Windows NT 10.0; Win64; x64) AppleWebKit/537.36 (KHTML, like Gecko) Chrome/135.0.0.0 Safari/537.36" version="26.2.9" pages="3">
  <diagram name="Current" id="DMm66JICNg-b_BuIPjOW">
    <mxGraphModel dx="6456" dy="2790" grid="1" gridSize="10" guides="1" tooltips="1" connect="1" arrows="1" fold="1" page="0" pageScale="1" pageWidth="1169" pageHeight="1654" background="none" math="0" shadow="0">
      <root>
        <mxCell id="0" />
        <mxCell id="1" parent="0" />
        <mxCell id="VxaLEeJSrOtXhIWzbfS_-77" value="DPT_OPN: Open new deposit account" style="html=1;overflow=block;blockSpacing=1;whiteSpace=wrap;fontSize=16;spacing=9;strokeOpacity=100;fillOpacity=0;rounded=1;absoluteArcSize=1;arcSize=9;fillColor=#000000;strokeWidth=1;lucidId=C0K84pjTFIGe;labelBackgroundColor=none;" parent="1" vertex="1">
          <mxGeometry x="-3200" y="54" width="200" height="60" as="geometry" />
        </mxCell>
        <mxCell id="VxaLEeJSrOtXhIWzbfS_-261" style="edgeStyle=orthogonalEdgeStyle;rounded=0;orthogonalLoop=1;jettySize=auto;html=1;exitX=0.5;exitY=0;exitDx=0;exitDy=0;entryX=0.5;entryY=1;entryDx=0;entryDy=0;" parent="1" source="VxaLEeJSrOtXhIWzbfS_-78" target="VxaLEeJSrOtXhIWzbfS_-81" edge="1">
          <mxGeometry relative="1" as="geometry" />
        </mxCell>
        <mxCell id="VxaLEeJSrOtXhIWzbfS_-277" value="&lt;b&gt;&lt;font style=&quot;font-size: 16px;&quot;&gt;NO&lt;/font&gt;&lt;/b&gt;" style="edgeLabel;html=1;align=center;verticalAlign=middle;resizable=0;points=[];" parent="VxaLEeJSrOtXhIWzbfS_-261" vertex="1" connectable="0">
          <mxGeometry x="-0.2071" relative="1" as="geometry">
            <mxPoint y="-4" as="offset" />
          </mxGeometry>
        </mxCell>
        <mxCell id="VxaLEeJSrOtXhIWzbfS_-78" value="Approve deposit account?" style="html=1;overflow=block;blockSpacing=1;whiteSpace=wrap;rhombus;fontSize=16;spacing=9;strokeOpacity=100;fillOpacity=0;rounded=1;absoluteArcSize=1;arcSize=9;fillColor=#000000;strokeWidth=1;lucidId=C0K8-goSnGRA;labelBackgroundColor=none;" parent="1" vertex="1">
          <mxGeometry x="-2960" y="44" width="200" height="80" as="geometry" />
        </mxCell>
        <mxCell id="VxaLEeJSrOtXhIWzbfS_-81" value="DPT_REJ: Reject deposit account" style="html=1;overflow=block;blockSpacing=1;whiteSpace=wrap;fontSize=16;spacing=9;strokeOpacity=100;rounded=1;absoluteArcSize=1;arcSize=9;strokeWidth=1;lucidId=E1K8_GnM5wsY;labelBackgroundColor=none;fillColor=none;" parent="1" vertex="1">
          <mxGeometry x="-2940" y="-76" width="160" height="60" as="geometry" />
        </mxCell>
        <mxCell id="VxaLEeJSrOtXhIWzbfS_-82" value="" style="html=1;jettySize=18;whiteSpace=wrap;fontSize=16;fontColor=#333333;fontStyle=1;strokeColor=#3a414a;strokeOpacity=100;strokeWidth=0.8;rounded=1;arcSize=12;edgeStyle=orthogonalEdgeStyle;jumpStyle=arc;startArrow=none;endArrow=block;endFill=1;exitX=0.988;exitY=0.5;exitPerimeter=0;entryX=-0.006;entryY=0.5;entryPerimeter=0;lucidId=O2K8zMyo41Df;labelBackgroundColor=none;" parent="1" source="VxaLEeJSrOtXhIWzbfS_-78" target="VxaLEeJSrOtXhIWzbfS_-84" edge="1">
          <mxGeometry width="100" height="100" relative="1" as="geometry">
            <Array as="points" />
          </mxGeometry>
        </mxCell>
        <mxCell id="VxaLEeJSrOtXhIWzbfS_-274" value="&lt;b&gt;&lt;font style=&quot;font-size: 16px;&quot;&gt;YES&lt;/font&gt;&lt;/b&gt;" style="edgeLabel;html=1;align=center;verticalAlign=middle;resizable=0;points=[];" parent="VxaLEeJSrOtXhIWzbfS_-82" vertex="1" connectable="0">
          <mxGeometry x="0.1555" relative="1" as="geometry">
            <mxPoint x="-9" as="offset" />
          </mxGeometry>
        </mxCell>
        <mxCell id="otUTkGOp0DZPTnuu0anT-1" style="edgeStyle=orthogonalEdgeStyle;rounded=0;orthogonalLoop=1;jettySize=auto;html=1;exitX=0.5;exitY=1;exitDx=0;exitDy=0;entryX=0.5;entryY=1;entryDx=0;entryDy=0;dashed=1;dashPattern=8 8;strokeColor=#FF0000;" edge="1" parent="1" source="VxaLEeJSrOtXhIWzbfS_-84" target="VxaLEeJSrOtXhIWzbfS_-241">
          <mxGeometry relative="1" as="geometry" />
        </mxCell>
        <mxCell id="VxaLEeJSrOtXhIWzbfS_-84" value="DPT_APR: Approve deposit account" style="html=1;overflow=block;blockSpacing=1;whiteSpace=wrap;fontSize=16;spacing=9;strokeOpacity=100;rounded=1;absoluteArcSize=1;arcSize=9;strokeWidth=1;lucidId=Q2K8Qx9mygk0;labelBackgroundColor=none;fillColor=none;" parent="1" vertex="1">
          <mxGeometry x="-2700" y="54" width="160" height="60" as="geometry" />
        </mxCell>
        <mxCell id="VxaLEeJSrOtXhIWzbfS_-248" style="edgeStyle=orthogonalEdgeStyle;rounded=0;orthogonalLoop=1;jettySize=auto;html=1;exitX=0.5;exitY=1;exitDx=0;exitDy=0;entryX=0;entryY=0.5;entryDx=0;entryDy=0;fontSize=16;" parent="1" source="VxaLEeJSrOtXhIWzbfS_-88" target="VxaLEeJSrOtXhIWzbfS_-220" edge="1">
          <mxGeometry relative="1" as="geometry" />
        </mxCell>
        <mxCell id="VxaLEeJSrOtXhIWzbfS_-249" style="edgeStyle=orthogonalEdgeStyle;rounded=0;orthogonalLoop=1;jettySize=auto;html=1;exitX=0.5;exitY=1;exitDx=0;exitDy=0;entryX=0;entryY=0.5;entryDx=0;entryDy=0;fontSize=16;" parent="1" source="VxaLEeJSrOtXhIWzbfS_-88" target="VxaLEeJSrOtXhIWzbfS_-227" edge="1">
          <mxGeometry relative="1" as="geometry" />
        </mxCell>
        <mxCell id="VxaLEeJSrOtXhIWzbfS_-251" style="edgeStyle=orthogonalEdgeStyle;rounded=0;orthogonalLoop=1;jettySize=auto;html=1;exitX=0.5;exitY=1;exitDx=0;exitDy=0;entryX=0;entryY=0.5;entryDx=0;entryDy=0;fontSize=16;" parent="1" source="VxaLEeJSrOtXhIWzbfS_-88" target="VxaLEeJSrOtXhIWzbfS_-241" edge="1">
          <mxGeometry relative="1" as="geometry" />
        </mxCell>
        <mxCell id="J-XIWrtoKLZFgz8fOZKb-4" value="" style="edgeStyle=orthogonalEdgeStyle;rounded=0;orthogonalLoop=1;jettySize=auto;html=1;entryX=0;entryY=0.5;entryDx=0;entryDy=0;" parent="1" source="VxaLEeJSrOtXhIWzbfS_-88" target="VxaLEeJSrOtXhIWzbfS_-163" edge="1">
          <mxGeometry relative="1" as="geometry" />
        </mxCell>
        <mxCell id="VxaLEeJSrOtXhIWzbfS_-88" value="DPT_CIS: Cheque book issued" style="html=1;overflow=block;blockSpacing=1;whiteSpace=wrap;fontSize=16;spacing=9;strokeOpacity=100;rounded=1;absoluteArcSize=1;arcSize=9;strokeWidth=1;lucidId=A4K8zdcVxU0g;labelBackgroundColor=none;" parent="1" vertex="1">
          <mxGeometry x="-1940" y="55" width="200" height="60" as="geometry" />
        </mxCell>
        <mxCell id="VxaLEeJSrOtXhIWzbfS_-154" value="" style="edgeStyle=orthogonalEdgeStyle;rounded=0;orthogonalLoop=1;jettySize=auto;html=1;entryX=0.5;entryY=1;entryDx=0;entryDy=0;fontSize=16;" parent="1" source="VxaLEeJSrOtXhIWzbfS_-89" target="VxaLEeJSrOtXhIWzbfS_-92" edge="1">
          <mxGeometry relative="1" as="geometry">
            <mxPoint x="-2049" y="-43" as="targetPoint" />
          </mxGeometry>
        </mxCell>
        <mxCell id="VxaLEeJSrOtXhIWzbfS_-283" value="&lt;b&gt;&lt;font style=&quot;font-size: 16px;&quot;&gt;NO&lt;/font&gt;&lt;/b&gt;" style="edgeLabel;html=1;align=center;verticalAlign=middle;resizable=0;points=[];" parent="VxaLEeJSrOtXhIWzbfS_-154" vertex="1" connectable="0">
          <mxGeometry x="0.068" y="1" relative="1" as="geometry">
            <mxPoint as="offset" />
          </mxGeometry>
        </mxCell>
        <mxCell id="VxaLEeJSrOtXhIWzbfS_-89" value="Do you have &quot;Cheque&quot;?" style="html=1;overflow=block;blockSpacing=1;whiteSpace=wrap;rhombus;fontSize=16;spacing=9;strokeOpacity=100;fillOpacity=0;rounded=1;absoluteArcSize=1;arcSize=9;fillColor=#000000;strokeWidth=1;lucidId=m6K8SB-cduvH;labelBackgroundColor=none;" parent="1" vertex="1">
          <mxGeometry x="-2220" y="39.25" width="220" height="90" as="geometry" />
        </mxCell>
        <mxCell id="VxaLEeJSrOtXhIWzbfS_-92" value="Is the user in HO?" style="html=1;overflow=block;blockSpacing=1;whiteSpace=wrap;rhombus;fontSize=16;spacing=9;strokeOpacity=100;fillOpacity=0;rounded=1;absoluteArcSize=1;arcSize=9;fillColor=#000000;strokeWidth=1;lucidId=O8K8_05I5hbr;labelBackgroundColor=none;" parent="1" vertex="1">
          <mxGeometry x="-2220" y="-310" width="220" height="90" as="geometry" />
        </mxCell>
        <mxCell id="VxaLEeJSrOtXhIWzbfS_-93" value="" style="html=1;jettySize=18;whiteSpace=wrap;fontSize=16;fontColor=#333333;fontStyle=1;strokeColor=#3a414a;strokeOpacity=100;strokeWidth=1;rounded=1;arcSize=12;edgeStyle=orthogonalEdgeStyle;startArrow=none;endArrow=block;endFill=1;exitX=0.5;exitY=0.002;exitPerimeter=0;lucidId=t-K8pr-iaynm;labelBackgroundColor=none;entryX=0;entryY=0.5;entryDx=0;entryDy=0;" parent="1" source="VxaLEeJSrOtXhIWzbfS_-92" target="VxaLEeJSrOtXhIWzbfS_-200" edge="1">
          <mxGeometry width="100" height="100" relative="1" as="geometry">
            <Array as="points" />
            <mxPoint x="-2100" y="-730" as="targetPoint" />
          </mxGeometry>
        </mxCell>
        <mxCell id="VxaLEeJSrOtXhIWzbfS_-285" value="&lt;b&gt;&lt;font style=&quot;font-size: 16px;&quot;&gt;YES&lt;/font&gt;&lt;/b&gt;" style="edgeLabel;html=1;align=center;verticalAlign=middle;resizable=0;points=[];" parent="VxaLEeJSrOtXhIWzbfS_-93" vertex="1" connectable="0">
          <mxGeometry x="-0.2648" y="-1" relative="1" as="geometry">
            <mxPoint y="1" as="offset" />
          </mxGeometry>
        </mxCell>
        <mxCell id="VxaLEeJSrOtXhIWzbfS_-115" value="" style="html=1;jettySize=18;whiteSpace=wrap;fontSize=16;fontColor=#333333;fontStyle=1;strokeColor=#3a414a;strokeOpacity=100;strokeWidth=1;rounded=1;arcSize=12;edgeStyle=orthogonalEdgeStyle;startArrow=none;endArrow=block;endFill=1;exitX=0.989;exitY=0.5;exitPerimeter=0;lucidId=diL8J1pEU5sI;labelBackgroundColor=none;entryX=0;entryY=0.5;entryDx=0;entryDy=0;" parent="1" source="VxaLEeJSrOtXhIWzbfS_-92" target="VxaLEeJSrOtXhIWzbfS_-168" edge="1">
          <mxGeometry width="100" height="100" relative="1" as="geometry">
            <Array as="points" />
            <mxPoint x="-1890" y="-275" as="targetPoint" />
          </mxGeometry>
        </mxCell>
        <mxCell id="VxaLEeJSrOtXhIWzbfS_-280" value="&lt;b&gt;&lt;font style=&quot;font-size: 16px;&quot;&gt;NO&lt;/font&gt;&lt;/b&gt;" style="edgeLabel;html=1;align=center;verticalAlign=middle;resizable=0;points=[];" parent="VxaLEeJSrOtXhIWzbfS_-115" vertex="1" connectable="0">
          <mxGeometry x="-0.1742" y="1" relative="1" as="geometry">
            <mxPoint x="2" as="offset" />
          </mxGeometry>
        </mxCell>
        <mxCell id="VxaLEeJSrOtXhIWzbfS_-128" value="" style="html=1;jettySize=18;whiteSpace=wrap;fontSize=16;strokeColor=#3a414a;strokeOpacity=100;strokeWidth=0.8;rounded=1;arcSize=12;edgeStyle=orthogonalEdgeStyle;startArrow=none;endArrow=block;endFill=1;exitX=0.5;exitY=-0.01;exitPerimeter=0;entryX=0.5;entryY=1.015;entryPerimeter=0;lucidId=2zL8Nh6T.o6e;labelBackgroundColor=none;" parent="1" source="VxaLEeJSrOtXhIWzbfS_-81" edge="1">
          <mxGeometry width="100" height="100" relative="1" as="geometry">
            <Array as="points" />
            <mxPoint x="-2860" y="-115.40000000000009" as="targetPoint" />
          </mxGeometry>
        </mxCell>
        <mxCell id="VxaLEeJSrOtXhIWzbfS_-129" value="End" style="html=1;overflow=block;blockSpacing=1;whiteSpace=wrap;ellipse;fontSize=16;spacing=9;strokeOpacity=100;rounded=1;absoluteArcSize=1;arcSize=9;strokeWidth=NaN;lucidId=2zL8Q2and7EK;labelBackgroundColor=none;" parent="1" vertex="1">
          <mxGeometry x="-2890" y="-130" width="60" height="40" as="geometry" />
        </mxCell>
        <mxCell id="VxaLEeJSrOtXhIWzbfS_-130" value="" style="html=1;jettySize=18;whiteSpace=wrap;fontSize=13;strokeColor=#e81313;strokeOpacity=100;dashed=1;fixDash=1;dashPattern=8 8;strokeWidth=0.8;rounded=1;arcSize=12;edgeStyle=orthogonalEdgeStyle;startArrow=none;endArrow=block;endFill=1;exitX=0.5;exitY=1.008;exitPerimeter=0;entryX=0.5;entryY=-0.008;entryPerimeter=0;lucidId=LBL8KxfsIMmQ;labelBackgroundColor=none;" parent="1" edge="1">
          <mxGeometry width="100" height="100" relative="1" as="geometry">
            <Array as="points" />
            <mxPoint x="-1502.5" y="-228.2639999999999" as="sourcePoint" />
          </mxGeometry>
        </mxCell>
        <mxCell id="VxaLEeJSrOtXhIWzbfS_-147" value="" style="edgeStyle=orthogonalEdgeStyle;rounded=0;orthogonalLoop=1;jettySize=auto;html=1;fontSize=16;" parent="1" source="VxaLEeJSrOtXhIWzbfS_-146" target="VxaLEeJSrOtXhIWzbfS_-77" edge="1">
          <mxGeometry relative="1" as="geometry" />
        </mxCell>
        <mxCell id="VxaLEeJSrOtXhIWzbfS_-146" value="&lt;font&gt;Begin&lt;/font&gt;" style="ellipse;whiteSpace=wrap;html=1;fontSize=16;" parent="1" vertex="1">
          <mxGeometry x="-3300" y="64" width="60" height="40" as="geometry" />
        </mxCell>
        <mxCell id="VxaLEeJSrOtXhIWzbfS_-159" value="Deposit transactions" style="swimlane;whiteSpace=wrap;html=1;fontSize=16;startSize=30;" parent="1" vertex="1">
          <mxGeometry x="-2500" y="-61.5" width="240" height="291.5" as="geometry">
            <mxRectangle x="-2470" y="-53" width="190" height="30" as="alternateBounds" />
          </mxGeometry>
        </mxCell>
        <mxCell id="VxaLEeJSrOtXhIWzbfS_-136" value="DPT_CDP: Cash deposit" style="html=1;overflow=block;blockSpacing=1;whiteSpace=wrap;fontSize=16;spacing=9;strokeOpacity=100;rounded=1;absoluteArcSize=1;arcSize=9;strokeWidth=1;lucidId=Bm08SP1lj_z.;labelBackgroundColor=none;" parent="VxaLEeJSrOtXhIWzbfS_-159" vertex="1">
          <mxGeometry x="20" y="51.5" width="200" height="40" as="geometry" />
        </mxCell>
        <mxCell id="VxaLEeJSrOtXhIWzbfS_-126" value="DPT_TRF: Transfer from deposit account to deposit account" style="html=1;overflow=block;blockSpacing=1;whiteSpace=wrap;fontSize=16;spacing=9;strokeOpacity=100;rounded=1;absoluteArcSize=1;arcSize=9;strokeWidth=1;lucidId=zyL8M3RWzBDG;labelBackgroundColor=none;" parent="VxaLEeJSrOtXhIWzbfS_-159" vertex="1">
          <mxGeometry x="20" y="111.5" width="200" height="80" as="geometry" />
        </mxCell>
        <mxCell id="VxaLEeJSrOtXhIWzbfS_-137" value="DPT_MDP: Miscellaneous deposit" style="html=1;overflow=block;blockSpacing=1;whiteSpace=wrap;fontSize=16;spacing=9;strokeOpacity=100;rounded=1;absoluteArcSize=1;arcSize=9;strokeWidth=1;lucidId=bn08uZzj-w-n;labelBackgroundColor=none;" parent="VxaLEeJSrOtXhIWzbfS_-159" vertex="1">
          <mxGeometry x="20" y="211.5" width="200" height="60" as="geometry" />
        </mxCell>
        <mxCell id="VxaLEeJSrOtXhIWzbfS_-161" value="" style="endArrow=classic;html=1;rounded=0;exitX=1;exitY=0.5;exitDx=0;exitDy=0;fontSize=16;entryX=0.016;entryY=0.503;entryDx=0;entryDy=0;entryPerimeter=0;" parent="1" source="VxaLEeJSrOtXhIWzbfS_-159" target="VxaLEeJSrOtXhIWzbfS_-89" edge="1">
          <mxGeometry width="50" height="50" relative="1" as="geometry">
            <mxPoint x="-2375" y="166" as="sourcePoint" />
            <mxPoint x="-2220" y="84" as="targetPoint" />
          </mxGeometry>
        </mxCell>
        <mxCell id="VxaLEeJSrOtXhIWzbfS_-162" value="" style="endArrow=classic;html=1;rounded=0;exitX=1;exitY=0.5;exitDx=0;exitDy=0;entryX=0;entryY=0.5;entryDx=0;entryDy=0;fontSize=16;" parent="1" source="VxaLEeJSrOtXhIWzbfS_-84" target="VxaLEeJSrOtXhIWzbfS_-159" edge="1">
          <mxGeometry width="50" height="50" relative="1" as="geometry">
            <mxPoint x="-2370" y="54" as="sourcePoint" />
            <mxPoint x="-2320" y="4" as="targetPoint" />
          </mxGeometry>
        </mxCell>
        <mxCell id="VxaLEeJSrOtXhIWzbfS_-163" value="Withdrawal transactions" style="swimlane;whiteSpace=wrap;html=1;fontSize=16;startSize=30;" parent="1" vertex="1">
          <mxGeometry x="-1700" y="-30" width="440" height="230" as="geometry">
            <mxRectangle x="-1700" y="-29.75" width="190" height="30" as="alternateBounds" />
          </mxGeometry>
        </mxCell>
        <mxCell id="VxaLEeJSrOtXhIWzbfS_-164" value="DPT_CWC: Cash withdrawal by cheque" style="html=1;overflow=block;blockSpacing=1;whiteSpace=wrap;fontSize=16;spacing=9;strokeOpacity=100;rounded=1;absoluteArcSize=1;arcSize=9;strokeWidth=1;lucidId=Bm08SP1lj_z.;labelBackgroundColor=none;" parent="VxaLEeJSrOtXhIWzbfS_-163" vertex="1">
          <mxGeometry x="20" y="50" width="400" height="40" as="geometry" />
        </mxCell>
        <mxCell id="VxaLEeJSrOtXhIWzbfS_-165" value="DPT_CDT: Deposit by cheque" style="html=1;overflow=block;blockSpacing=1;whiteSpace=wrap;fontSize=16;spacing=9;strokeOpacity=100;rounded=1;absoluteArcSize=1;arcSize=9;strokeWidth=1;lucidId=zyL8M3RWzBDG;labelBackgroundColor=none;" parent="VxaLEeJSrOtXhIWzbfS_-163" vertex="1">
          <mxGeometry x="20" y="110" width="400" height="40" as="geometry" />
        </mxCell>
        <mxCell id="VxaLEeJSrOtXhIWzbfS_-166" value="DPT_CWM: Miscellaneous debit by cheque" style="html=1;overflow=block;blockSpacing=1;whiteSpace=wrap;fontSize=16;spacing=9;strokeOpacity=100;rounded=1;absoluteArcSize=1;arcSize=9;strokeWidth=1;lucidId=bn08uZzj-w-n;labelBackgroundColor=none;" parent="VxaLEeJSrOtXhIWzbfS_-163" vertex="1">
          <mxGeometry x="20" y="170" width="400" height="40" as="geometry" />
        </mxCell>
        <mxCell id="VxaLEeJSrOtXhIWzbfS_-185" style="edgeStyle=orthogonalEdgeStyle;rounded=0;orthogonalLoop=1;jettySize=auto;html=1;exitX=1;exitY=0.5;exitDx=0;exitDy=0;entryX=0.5;entryY=0;entryDx=0;entryDy=0;fontSize=16;" parent="1" source="VxaLEeJSrOtXhIWzbfS_-168" target="VxaLEeJSrOtXhIWzbfS_-88" edge="1">
          <mxGeometry relative="1" as="geometry">
            <mxPoint x="-1040" y="-265" as="sourcePoint" />
            <mxPoint x="-1820" y="80" as="targetPoint" />
            <Array as="points">
              <mxPoint x="-1030" y="-265" />
              <mxPoint x="-1030" y="-60" />
              <mxPoint x="-1840" y="-60" />
            </Array>
          </mxGeometry>
        </mxCell>
        <mxCell id="VxaLEeJSrOtXhIWzbfS_-168" value="Registration Stock at Branch" style="swimlane;whiteSpace=wrap;html=1;fontSize=16;startSize=30;" parent="1" vertex="1">
          <mxGeometry x="-1940" y="-440" width="880" height="350" as="geometry">
            <mxRectangle x="-1890" y="-500" width="190" height="30" as="alternateBounds" />
          </mxGeometry>
        </mxCell>
        <mxCell id="VxaLEeJSrOtXhIWzbfS_-182" value="" style="edgeStyle=orthogonalEdgeStyle;rounded=0;orthogonalLoop=1;jettySize=auto;html=1;fontSize=16;" parent="VxaLEeJSrOtXhIWzbfS_-168" source="VxaLEeJSrOtXhIWzbfS_-180" target="VxaLEeJSrOtXhIWzbfS_-169" edge="1">
          <mxGeometry relative="1" as="geometry" />
        </mxCell>
        <mxCell id="VxaLEeJSrOtXhIWzbfS_-180" value="&lt;font&gt;Begin&lt;/font&gt;" style="ellipse;whiteSpace=wrap;html=1;fontSize=16;" parent="VxaLEeJSrOtXhIWzbfS_-168" vertex="1">
          <mxGeometry x="20" y="180" width="60" height="40" as="geometry" />
        </mxCell>
        <mxCell id="VxaLEeJSrOtXhIWzbfS_-169" value="DPT_SRG: Stock registration" style="html=1;overflow=block;blockSpacing=1;whiteSpace=wrap;fontSize=16;spacing=9;strokeOpacity=100;fillOpacity=0;rounded=1;absoluteArcSize=1;arcSize=9;fillColor=#000000;strokeWidth=1;lucidId=diL8n7n7nvlU;labelBackgroundColor=none;" parent="VxaLEeJSrOtXhIWzbfS_-168" vertex="1">
          <mxGeometry x="120" y="170" width="160" height="60" as="geometry" />
        </mxCell>
        <mxCell id="VxaLEeJSrOtXhIWzbfS_-217" style="edgeStyle=orthogonalEdgeStyle;rounded=0;orthogonalLoop=1;jettySize=auto;html=1;exitX=0.5;exitY=1;exitDx=0;exitDy=0;entryX=0.5;entryY=0;entryDx=0;entryDy=0;dashed=1;dashPattern=8 8;strokeColor=#FF0000;fontSize=16;" parent="VxaLEeJSrOtXhIWzbfS_-168" source="VxaLEeJSrOtXhIWzbfS_-171" target="VxaLEeJSrOtXhIWzbfS_-174" edge="1">
          <mxGeometry relative="1" as="geometry" />
        </mxCell>
        <mxCell id="VxaLEeJSrOtXhIWzbfS_-171" value="DPT_SAT: Stock assign to Staff" style="html=1;overflow=block;blockSpacing=1;whiteSpace=wrap;fontSize=16;spacing=9;strokeOpacity=100;fillOpacity=0;rounded=1;absoluteArcSize=1;arcSize=9;fillColor=#000000;strokeWidth=1;lucidId=siL8XiZfh94J;labelBackgroundColor=none;" parent="VxaLEeJSrOtXhIWzbfS_-168" vertex="1">
          <mxGeometry x="321" y="170" width="200" height="60" as="geometry" />
        </mxCell>
        <mxCell id="VxaLEeJSrOtXhIWzbfS_-211" value="" style="edgeStyle=orthogonalEdgeStyle;rounded=0;orthogonalLoop=1;jettySize=auto;html=1;fontSize=16;" parent="VxaLEeJSrOtXhIWzbfS_-168" source="VxaLEeJSrOtXhIWzbfS_-173" target="VxaLEeJSrOtXhIWzbfS_-210" edge="1">
          <mxGeometry relative="1" as="geometry" />
        </mxCell>
        <mxCell id="VxaLEeJSrOtXhIWzbfS_-173" value="DPT_CCR: Stock confirm received" style="html=1;overflow=block;blockSpacing=1;whiteSpace=wrap;fontSize=16;spacing=9;strokeOpacity=100;fillOpacity=0;rounded=1;absoluteArcSize=1;arcSize=9;fillColor=#000000;strokeWidth=1;lucidId=GpL8sMLPmteC;labelBackgroundColor=none;" parent="VxaLEeJSrOtXhIWzbfS_-168" vertex="1">
          <mxGeometry x="561" y="170" width="200" height="60" as="geometry" />
        </mxCell>
        <mxCell id="VxaLEeJSrOtXhIWzbfS_-281" style="edgeStyle=orthogonalEdgeStyle;rounded=0;orthogonalLoop=1;jettySize=auto;html=1;exitX=0.5;exitY=0;exitDx=0;exitDy=0;dashed=1;dashPattern=8 8;strokeColor=#FF0000;" parent="VxaLEeJSrOtXhIWzbfS_-168" source="VxaLEeJSrOtXhIWzbfS_-177" edge="1">
          <mxGeometry relative="1" as="geometry">
            <mxPoint x="300" y="200" as="targetPoint" />
          </mxGeometry>
        </mxCell>
        <mxCell id="VxaLEeJSrOtXhIWzbfS_-177" value="DPT_CRT: 11833: Stock returned" style="html=1;overflow=block;blockSpacing=1;whiteSpace=wrap;fontSize=16;spacing=9;strokeOpacity=100;fillOpacity=0;rounded=1;absoluteArcSize=1;arcSize=9;fillColor=#000000;strokeWidth=1;lucidId=5BL8WdrcK.6P;labelBackgroundColor=none;" parent="VxaLEeJSrOtXhIWzbfS_-168" vertex="1">
          <mxGeometry x="561" y="70" width="200" height="60" as="geometry" />
        </mxCell>
        <mxCell id="VxaLEeJSrOtXhIWzbfS_-282" style="edgeStyle=orthogonalEdgeStyle;rounded=0;orthogonalLoop=1;jettySize=auto;html=1;exitX=0;exitY=0.5;exitDx=0;exitDy=0;dashed=1;dashPattern=8 8;strokeColor=#FF0000;" parent="VxaLEeJSrOtXhIWzbfS_-168" source="VxaLEeJSrOtXhIWzbfS_-174" edge="1">
          <mxGeometry relative="1" as="geometry">
            <mxPoint x="300" y="200" as="targetPoint" />
          </mxGeometry>
        </mxCell>
        <mxCell id="VxaLEeJSrOtXhIWzbfS_-174" value="DPT_SRA: 11835: Reject assigned stock" style="html=1;overflow=block;blockSpacing=1;whiteSpace=wrap;fontSize=16;spacing=9;strokeOpacity=100;fillOpacity=0;rounded=1;absoluteArcSize=1;arcSize=9;fillColor=#000000;strokeWidth=1;lucidId=LBL8hcJfMu7N;labelBackgroundColor=none;" parent="VxaLEeJSrOtXhIWzbfS_-168" vertex="1">
          <mxGeometry x="321" y="270" width="200" height="60" as="geometry" />
        </mxCell>
        <mxCell id="VxaLEeJSrOtXhIWzbfS_-170" value="" style="html=1;jettySize=18;whiteSpace=wrap;fontSize=16;strokeColor=#3a414a;strokeOpacity=100;strokeWidth=1;rounded=1;arcSize=12;edgeStyle=orthogonalEdgeStyle;startArrow=none;endArrow=block;endFill=1;exitX=1.004;exitY=0.5;exitPerimeter=0;entryX=-0.004;entryY=0.5;entryPerimeter=0;lucidId=siL8WX6Wz.jX;labelBackgroundColor=none;" parent="VxaLEeJSrOtXhIWzbfS_-168" source="VxaLEeJSrOtXhIWzbfS_-169" target="VxaLEeJSrOtXhIWzbfS_-171" edge="1">
          <mxGeometry width="100" height="100" relative="1" as="geometry">
            <Array as="points" />
          </mxGeometry>
        </mxCell>
        <mxCell id="VxaLEeJSrOtXhIWzbfS_-172" value="" style="html=1;jettySize=18;whiteSpace=wrap;fontSize=16;strokeColor=#3a414a;strokeOpacity=100;strokeWidth=1;rounded=1;arcSize=12;edgeStyle=orthogonalEdgeStyle;startArrow=none;endArrow=block;endFill=1;exitX=1.004;exitY=0.5;exitPerimeter=0;entryX=-0.004;entryY=0.5;entryPerimeter=0;lucidId=GpL81wC2y2YN;labelBackgroundColor=none;" parent="VxaLEeJSrOtXhIWzbfS_-168" source="VxaLEeJSrOtXhIWzbfS_-171" target="VxaLEeJSrOtXhIWzbfS_-173" edge="1">
          <mxGeometry width="100" height="100" relative="1" as="geometry">
            <Array as="points" />
          </mxGeometry>
        </mxCell>
        <mxCell id="VxaLEeJSrOtXhIWzbfS_-176" value="" style="html=1;jettySize=18;whiteSpace=wrap;fontSize=16;strokeColor=#e81313;strokeOpacity=100;dashed=1;fixDash=1;dashPattern=8 8;strokeWidth=1;rounded=1;arcSize=12;edgeStyle=orthogonalEdgeStyle;startArrow=none;endArrow=block;endFill=1;exitX=0.5;exitY=-0.008;exitPerimeter=0;entryX=0.5;entryY=1.008;entryPerimeter=0;lucidId=5BL8zqoS5Ayx;labelBackgroundColor=none;" parent="VxaLEeJSrOtXhIWzbfS_-168" source="VxaLEeJSrOtXhIWzbfS_-173" target="VxaLEeJSrOtXhIWzbfS_-177" edge="1">
          <mxGeometry width="100" height="100" relative="1" as="geometry">
            <Array as="points" />
          </mxGeometry>
        </mxCell>
        <mxCell id="VxaLEeJSrOtXhIWzbfS_-210" value="&lt;font&gt;End&lt;/font&gt;" style="ellipse;whiteSpace=wrap;html=1;fontSize=16;" parent="VxaLEeJSrOtXhIWzbfS_-168" vertex="1">
          <mxGeometry x="800" y="180" width="60" height="40" as="geometry" />
        </mxCell>
        <mxCell id="J-XIWrtoKLZFgz8fOZKb-3" style="edgeStyle=orthogonalEdgeStyle;rounded=0;orthogonalLoop=1;jettySize=auto;html=1;exitX=1;exitY=0.5;exitDx=0;exitDy=0;" parent="1" source="VxaLEeJSrOtXhIWzbfS_-200" edge="1">
          <mxGeometry relative="1" as="geometry">
            <mxPoint x="-1080" y="-60" as="targetPoint" />
            <Array as="points">
              <mxPoint x="-550" y="-665" />
              <mxPoint x="-550" y="-60" />
            </Array>
          </mxGeometry>
        </mxCell>
        <mxCell id="VxaLEeJSrOtXhIWzbfS_-200" value="Registration Stock at HO" style="swimlane;whiteSpace=wrap;html=1;fontSize=16;startSize=30;" parent="1" vertex="1">
          <mxGeometry x="-1940" y="-840" width="1360" height="370" as="geometry">
            <mxRectangle x="-1890" y="-980" width="170" height="30" as="alternateBounds" />
          </mxGeometry>
        </mxCell>
        <mxCell id="VxaLEeJSrOtXhIWzbfS_-96" value="" style="html=1;jettySize=18;whiteSpace=wrap;fontSize=16;strokeColor=#3a414a;strokeOpacity=100;strokeWidth=0.8;rounded=1;arcSize=12;edgeStyle=orthogonalEdgeStyle;startArrow=none;endArrow=block;endFill=1;exitX=1.004;exitY=0.5;exitPerimeter=0;entryX=-0.004;entryY=0.5;entryPerimeter=0;lucidId=E-K8I0MomM04;labelBackgroundColor=none;" parent="VxaLEeJSrOtXhIWzbfS_-200" source="VxaLEeJSrOtXhIWzbfS_-95" target="VxaLEeJSrOtXhIWzbfS_-97" edge="1">
          <mxGeometry width="100" height="100" relative="1" as="geometry">
            <Array as="points" />
          </mxGeometry>
        </mxCell>
        <mxCell id="VxaLEeJSrOtXhIWzbfS_-97" value="DPT_SAB: 11831: Stock assigned to branch" style="html=1;overflow=block;blockSpacing=1;whiteSpace=wrap;fontSize=16;spacing=9;strokeOpacity=100;fillOpacity=0;rounded=1;absoluteArcSize=1;arcSize=9;fillColor=#000000;strokeWidth=1;lucidId=E-K8VwSi.VNv;labelBackgroundColor=none;" parent="VxaLEeJSrOtXhIWzbfS_-200" vertex="1">
          <mxGeometry x="320" y="170" width="200" height="60" as="geometry" />
        </mxCell>
        <mxCell id="VxaLEeJSrOtXhIWzbfS_-98" value="" style="html=1;jettySize=18;whiteSpace=wrap;fontSize=16;strokeColor=#3a414a;strokeOpacity=100;strokeWidth=0.8;rounded=1;arcSize=12;edgeStyle=orthogonalEdgeStyle;startArrow=none;endArrow=block;endFill=1;exitX=1.004;exitY=0.5;exitPerimeter=0;entryX=-0.004;entryY=0.5;entryPerimeter=0;lucidId=B_K8auC.OmKs;labelBackgroundColor=none;" parent="VxaLEeJSrOtXhIWzbfS_-200" source="VxaLEeJSrOtXhIWzbfS_-97" target="VxaLEeJSrOtXhIWzbfS_-99" edge="1">
          <mxGeometry width="100" height="100" relative="1" as="geometry">
            <Array as="points" />
          </mxGeometry>
        </mxCell>
        <mxCell id="VxaLEeJSrOtXhIWzbfS_-99" value="DPT_CCR: Stock confirm received (branch confirm)" style="html=1;overflow=block;blockSpacing=1;whiteSpace=wrap;fontSize=16;spacing=9;strokeOpacity=100;fillOpacity=0;rounded=1;absoluteArcSize=1;arcSize=9;fillColor=#000000;strokeWidth=1;lucidId=B_K8KtoC-B.U;labelBackgroundColor=none;" parent="VxaLEeJSrOtXhIWzbfS_-200" vertex="1">
          <mxGeometry x="560" y="170" width="200" height="60" as="geometry" />
        </mxCell>
        <mxCell id="VxaLEeJSrOtXhIWzbfS_-100" value="" style="html=1;jettySize=18;whiteSpace=wrap;fontSize=16;strokeColor=#3a414a;strokeOpacity=100;strokeWidth=0.8;rounded=1;arcSize=12;edgeStyle=orthogonalEdgeStyle;startArrow=none;endArrow=block;endFill=1;entryX=0;entryY=0.5;lucidId=f.K8d7xa3UE9;labelBackgroundColor=none;entryDx=0;entryDy=0;" parent="VxaLEeJSrOtXhIWzbfS_-200" target="VxaLEeJSrOtXhIWzbfS_-101" edge="1">
          <mxGeometry width="100" height="100" relative="1" as="geometry">
            <Array as="points" />
            <mxPoint x="760" y="200.09" as="sourcePoint" />
            <mxPoint x="833.4380000000001" y="199.89" as="targetPoint" />
          </mxGeometry>
        </mxCell>
        <mxCell id="J-XIWrtoKLZFgz8fOZKb-1" value="" style="edgeStyle=orthogonalEdgeStyle;rounded=0;orthogonalLoop=1;jettySize=auto;html=1;" parent="VxaLEeJSrOtXhIWzbfS_-200" source="VxaLEeJSrOtXhIWzbfS_-101" target="VxaLEeJSrOtXhIWzbfS_-103" edge="1">
          <mxGeometry relative="1" as="geometry" />
        </mxCell>
        <mxCell id="VxaLEeJSrOtXhIWzbfS_-101" value="DPT_SAT: Stock assign to Staff" style="html=1;overflow=block;blockSpacing=1;whiteSpace=wrap;fontSize=16;spacing=9;strokeOpacity=100;fillOpacity=0;rounded=1;absoluteArcSize=1;arcSize=9;fillColor=#000000;strokeWidth=1;lucidId=f.K8ricRqGn2;labelBackgroundColor=none;" parent="VxaLEeJSrOtXhIWzbfS_-200" vertex="1">
          <mxGeometry x="800" y="170" width="200" height="60" as="geometry" />
        </mxCell>
        <mxCell id="VxaLEeJSrOtXhIWzbfS_-213" value="" style="edgeStyle=orthogonalEdgeStyle;rounded=0;orthogonalLoop=1;jettySize=auto;html=1;fontSize=16;" parent="VxaLEeJSrOtXhIWzbfS_-200" source="VxaLEeJSrOtXhIWzbfS_-103" target="VxaLEeJSrOtXhIWzbfS_-212" edge="1">
          <mxGeometry relative="1" as="geometry" />
        </mxCell>
        <mxCell id="J-XIWrtoKLZFgz8fOZKb-2" value="" style="edgeStyle=orthogonalEdgeStyle;rounded=0;orthogonalLoop=1;jettySize=auto;html=1;dashed=1;dashPattern=8 8;strokeColor=#FF0000;" parent="VxaLEeJSrOtXhIWzbfS_-200" source="VxaLEeJSrOtXhIWzbfS_-103" target="VxaLEeJSrOtXhIWzbfS_-113" edge="1">
          <mxGeometry relative="1" as="geometry" />
        </mxCell>
        <mxCell id="VxaLEeJSrOtXhIWzbfS_-103" value="DPT_CCR: Stock confirm received (teller confirm)" style="html=1;overflow=block;blockSpacing=1;whiteSpace=wrap;fontSize=16;spacing=9;strokeOpacity=100;fillOpacity=0;rounded=1;absoluteArcSize=1;arcSize=9;fillColor=#000000;strokeWidth=1;lucidId=t.K89AFciOv3;labelBackgroundColor=none;" parent="VxaLEeJSrOtXhIWzbfS_-200" vertex="1">
          <mxGeometry x="1040" y="170" width="200" height="60" as="geometry" />
        </mxCell>
        <mxCell id="VxaLEeJSrOtXhIWzbfS_-104" value="" style="html=1;jettySize=18;whiteSpace=wrap;fontSize=16;strokeColor=#FF0000;strokeOpacity=100;dashed=1;fixDash=1;dashPattern=8 8;strokeWidth=1;rounded=1;arcSize=12;edgeStyle=orthogonalEdgeStyle;startArrow=none;endArrow=block;endFill=1;exitX=0.5;exitY=1.008;exitPerimeter=0;entryX=0.5;entryY=-0.008;entryPerimeter=0;lucidId=7~K8s93Qj5ms;labelBackgroundColor=none;" parent="VxaLEeJSrOtXhIWzbfS_-200" source="VxaLEeJSrOtXhIWzbfS_-97" target="VxaLEeJSrOtXhIWzbfS_-111" edge="1">
          <mxGeometry width="100" height="100" relative="1" as="geometry">
            <Array as="points" />
          </mxGeometry>
        </mxCell>
        <mxCell id="VxaLEeJSrOtXhIWzbfS_-108" value="" style="html=1;jettySize=18;whiteSpace=wrap;fontSize=16;strokeColor=#FF0000;strokeOpacity=100;dashed=1;fixDash=1;dashPattern=8 8;strokeWidth=1;rounded=1;arcSize=12;edgeStyle=orthogonalEdgeStyle;startArrow=none;endArrow=block;endFill=1;exitX=0.5;exitY=1.008;exitPerimeter=0;entryX=0.5;entryY=-0.008;entryPerimeter=0;lucidId=SdL8UjF9IZxt;labelBackgroundColor=none;" parent="VxaLEeJSrOtXhIWzbfS_-200" source="VxaLEeJSrOtXhIWzbfS_-101" target="VxaLEeJSrOtXhIWzbfS_-123" edge="1">
          <mxGeometry width="100" height="100" relative="1" as="geometry">
            <Array as="points" />
          </mxGeometry>
        </mxCell>
        <mxCell id="VxaLEeJSrOtXhIWzbfS_-258" style="edgeStyle=orthogonalEdgeStyle;rounded=0;orthogonalLoop=1;jettySize=auto;html=1;dashed=1;dashPattern=8 8;strokeColor=#FF0000;" parent="VxaLEeJSrOtXhIWzbfS_-200" source="VxaLEeJSrOtXhIWzbfS_-111" edge="1">
          <mxGeometry relative="1" as="geometry">
            <mxPoint x="300" y="200.09" as="targetPoint" />
          </mxGeometry>
        </mxCell>
        <mxCell id="VxaLEeJSrOtXhIWzbfS_-111" value="DPT_SRA: 11835: Reject assigned stock" style="html=1;overflow=block;blockSpacing=1;whiteSpace=wrap;fontSize=16;spacing=9;strokeOpacity=100;fillOpacity=0;rounded=1;absoluteArcSize=1;arcSize=9;fillColor=#000000;strokeWidth=1;lucidId=7~K8_bC7LJLh;labelBackgroundColor=none;" parent="VxaLEeJSrOtXhIWzbfS_-200" vertex="1">
          <mxGeometry x="320" y="270" width="200" height="60" as="geometry" />
        </mxCell>
        <mxCell id="VxaLEeJSrOtXhIWzbfS_-259" style="edgeStyle=orthogonalEdgeStyle;rounded=0;orthogonalLoop=1;jettySize=auto;html=1;exitX=0.5;exitY=0;exitDx=0;exitDy=0;dashed=1;dashPattern=8 8;strokeColor=#FF0000;" parent="VxaLEeJSrOtXhIWzbfS_-200" source="VxaLEeJSrOtXhIWzbfS_-112" edge="1">
          <mxGeometry relative="1" as="geometry">
            <mxPoint x="300" y="200.09" as="targetPoint" />
          </mxGeometry>
        </mxCell>
        <mxCell id="VxaLEeJSrOtXhIWzbfS_-112" value="DPT_CRT: 11833: Stock returned" style="html=1;overflow=block;blockSpacing=1;whiteSpace=wrap;fontSize=16;spacing=9;strokeOpacity=100;rounded=1;absoluteArcSize=1;arcSize=9;strokeWidth=1;lucidId=3bL8yir.PB5-;labelBackgroundColor=none;" parent="VxaLEeJSrOtXhIWzbfS_-200" vertex="1">
          <mxGeometry x="560" y="70.09" width="200" height="60" as="geometry" />
        </mxCell>
        <mxCell id="VxaLEeJSrOtXhIWzbfS_-257" style="edgeStyle=orthogonalEdgeStyle;rounded=0;orthogonalLoop=1;jettySize=auto;html=1;exitX=0;exitY=0.5;exitDx=0;exitDy=0;dashed=1;dashPattern=8 8;strokeColor=#FF0000;" parent="VxaLEeJSrOtXhIWzbfS_-200" source="VxaLEeJSrOtXhIWzbfS_-113" edge="1">
          <mxGeometry relative="1" as="geometry">
            <mxPoint x="780" y="200" as="targetPoint" />
          </mxGeometry>
        </mxCell>
        <mxCell id="VxaLEeJSrOtXhIWzbfS_-113" value="DPT_CRT: 11833: Stock returned" style="html=1;overflow=block;blockSpacing=1;whiteSpace=wrap;fontSize=16;spacing=9;strokeOpacity=100;fillOpacity=100;rounded=1;absoluteArcSize=1;arcSize=9;fillColor=#ffffff;strokeWidth=1;lucidId=ueL8av5Dy-su;labelBackgroundColor=none;" parent="VxaLEeJSrOtXhIWzbfS_-200" vertex="1">
          <mxGeometry x="1040" y="70.09" width="200" height="60" as="geometry" />
        </mxCell>
        <mxCell id="VxaLEeJSrOtXhIWzbfS_-255" style="edgeStyle=orthogonalEdgeStyle;rounded=0;orthogonalLoop=1;jettySize=auto;html=1;exitX=0.5;exitY=1;exitDx=0;exitDy=0;dashed=1;dashPattern=8 8;strokeColor=#FF0000;" parent="VxaLEeJSrOtXhIWzbfS_-200" source="VxaLEeJSrOtXhIWzbfS_-123" edge="1">
          <mxGeometry relative="1" as="geometry">
            <mxPoint x="780" y="200" as="targetPoint" />
          </mxGeometry>
        </mxCell>
        <mxCell id="VxaLEeJSrOtXhIWzbfS_-123" value="DPT_SRA: 11835: Reject assigned stock" style="html=1;overflow=block;blockSpacing=1;whiteSpace=wrap;fontSize=16;spacing=9;strokeOpacity=100;fillOpacity=0;rounded=1;absoluteArcSize=1;arcSize=9;fillColor=#000000;strokeWidth=1;lucidId=SdL8HdBOTPbP;labelBackgroundColor=none;" parent="VxaLEeJSrOtXhIWzbfS_-200" vertex="1">
          <mxGeometry x="800" y="270" width="200" height="60" as="geometry" />
        </mxCell>
        <mxCell id="VxaLEeJSrOtXhIWzbfS_-95" value="DPT_SRG: Stock registration" style="html=1;overflow=block;blockSpacing=1;whiteSpace=wrap;fontSize=16;spacing=9;strokeOpacity=100;fillOpacity=0;rounded=1;absoluteArcSize=1;arcSize=9;fillColor=#000000;strokeWidth=1;lucidId=t-K8BA6zqQXJ;labelBackgroundColor=none;" parent="VxaLEeJSrOtXhIWzbfS_-200" vertex="1">
          <mxGeometry x="120" y="170" width="160" height="60" as="geometry" />
        </mxCell>
        <mxCell id="VxaLEeJSrOtXhIWzbfS_-205" value="" style="edgeStyle=orthogonalEdgeStyle;rounded=0;orthogonalLoop=1;jettySize=auto;html=1;fontSize=16;" parent="VxaLEeJSrOtXhIWzbfS_-200" source="VxaLEeJSrOtXhIWzbfS_-204" target="VxaLEeJSrOtXhIWzbfS_-95" edge="1">
          <mxGeometry relative="1" as="geometry" />
        </mxCell>
        <mxCell id="VxaLEeJSrOtXhIWzbfS_-204" value="&lt;font&gt;Begin&lt;/font&gt;" style="ellipse;whiteSpace=wrap;html=1;fontSize=16;" parent="VxaLEeJSrOtXhIWzbfS_-200" vertex="1">
          <mxGeometry x="20" y="180.09" width="60" height="40" as="geometry" />
        </mxCell>
        <mxCell id="VxaLEeJSrOtXhIWzbfS_-212" value="&lt;font&gt;End&lt;/font&gt;" style="ellipse;whiteSpace=wrap;html=1;fontSize=16;" parent="VxaLEeJSrOtXhIWzbfS_-200" vertex="1">
          <mxGeometry x="1280" y="180" width="60" height="40" as="geometry" />
        </mxCell>
        <mxCell id="VxaLEeJSrOtXhIWzbfS_-256" style="edgeStyle=orthogonalEdgeStyle;rounded=0;orthogonalLoop=1;jettySize=auto;html=1;exitX=0.5;exitY=0;exitDx=0;exitDy=0;entryX=0.5;entryY=1;entryDx=0;entryDy=0;dashed=1;dashPattern=8 8;strokeColor=#FF0000;" parent="VxaLEeJSrOtXhIWzbfS_-200" source="VxaLEeJSrOtXhIWzbfS_-99" target="VxaLEeJSrOtXhIWzbfS_-112" edge="1">
          <mxGeometry relative="1" as="geometry" />
        </mxCell>
        <mxCell id="VxaLEeJSrOtXhIWzbfS_-220" value="Other transactions" style="swimlane;whiteSpace=wrap;html=1;fontSize=16;startSize=30;" parent="1" vertex="1">
          <mxGeometry x="-1700" y="230" width="440" height="350" as="geometry">
            <mxRectangle x="-1700" y="280" width="140" height="30" as="alternateBounds" />
          </mxGeometry>
        </mxCell>
        <mxCell id="VxaLEeJSrOtXhIWzbfS_-221" style="edgeStyle=orthogonalEdgeStyle;rounded=0;orthogonalLoop=1;jettySize=auto;html=1;exitX=1;exitY=0.5;exitDx=0;exitDy=0;entryX=0;entryY=0.5;entryDx=0;entryDy=0;fontSize=16;" parent="VxaLEeJSrOtXhIWzbfS_-220" source="VxaLEeJSrOtXhIWzbfS_-222" target="VxaLEeJSrOtXhIWzbfS_-223" edge="1">
          <mxGeometry relative="1" as="geometry" />
        </mxCell>
        <mxCell id="VxaLEeJSrOtXhIWzbfS_-222" value="DPT_EMK: Hold balance" style="rounded=1;whiteSpace=wrap;html=1;fontSize=16;" parent="VxaLEeJSrOtXhIWzbfS_-220" vertex="1">
          <mxGeometry x="20" y="50" width="180" height="60" as="geometry" />
        </mxCell>
        <mxCell id="VxaLEeJSrOtXhIWzbfS_-223" value="DPT_ERL: Release hold balance" style="rounded=1;whiteSpace=wrap;html=1;fontSize=16;" parent="VxaLEeJSrOtXhIWzbfS_-220" vertex="1">
          <mxGeometry x="240" y="50" width="180" height="60" as="geometry" />
        </mxCell>
        <mxCell id="VxaLEeJSrOtXhIWzbfS_-224" style="edgeStyle=orthogonalEdgeStyle;rounded=0;orthogonalLoop=1;jettySize=auto;html=1;exitX=1;exitY=0.5;exitDx=0;exitDy=0;entryX=0;entryY=0.5;entryDx=0;entryDy=0;fontSize=16;" parent="VxaLEeJSrOtXhIWzbfS_-220" source="VxaLEeJSrOtXhIWzbfS_-225" target="VxaLEeJSrOtXhIWzbfS_-226" edge="1">
          <mxGeometry relative="1" as="geometry" />
        </mxCell>
        <mxCell id="VxaLEeJSrOtXhIWzbfS_-225" value="DPT_BLK: Block account" style="rounded=1;whiteSpace=wrap;html=1;fontSize=16;" parent="VxaLEeJSrOtXhIWzbfS_-220" vertex="1">
          <mxGeometry x="20" y="130" width="180" height="60" as="geometry" />
        </mxCell>
        <mxCell id="VxaLEeJSrOtXhIWzbfS_-226" value="DPT_RLS: Release block account" style="rounded=1;whiteSpace=wrap;html=1;fontSize=16;" parent="VxaLEeJSrOtXhIWzbfS_-220" vertex="1">
          <mxGeometry x="240" y="130" width="180" height="60" as="geometry" />
        </mxCell>
        <mxCell id="VxaLEeJSrOtXhIWzbfS_-237" value="DPT_CAS: Change account status" style="rounded=1;whiteSpace=wrap;html=1;fontSize=16;" parent="VxaLEeJSrOtXhIWzbfS_-220" vertex="1">
          <mxGeometry x="20" y="210" width="180" height="60" as="geometry" />
        </mxCell>
        <mxCell id="VxaLEeJSrOtXhIWzbfS_-239" value="DPT_HIS: Transaction history inquiry" style="rounded=1;whiteSpace=wrap;html=1;fontSize=16;" parent="VxaLEeJSrOtXhIWzbfS_-220" vertex="1">
          <mxGeometry x="20" y="290" width="400" height="40" as="geometry" />
        </mxCell>
        <mxCell id="VxaLEeJSrOtXhIWzbfS_-240" value="DPT_FOC: Fee collection by cash" style="rounded=1;whiteSpace=wrap;html=1;fontSize=16;" parent="VxaLEeJSrOtXhIWzbfS_-220" vertex="1">
          <mxGeometry x="240" y="210" width="180" height="60" as="geometry" />
        </mxCell>
        <mxCell id="VxaLEeJSrOtXhIWzbfS_-227" value="Other cheque transactions" style="swimlane;whiteSpace=wrap;html=1;fontSize=16;startSize=30;" parent="1" vertex="1">
          <mxGeometry x="-1700" y="610" width="440" height="270" as="geometry" />
        </mxCell>
        <mxCell id="VxaLEeJSrOtXhIWzbfS_-228" style="edgeStyle=orthogonalEdgeStyle;rounded=0;orthogonalLoop=1;jettySize=auto;html=1;exitX=1;exitY=0.5;exitDx=0;exitDy=0;entryX=0;entryY=0.5;entryDx=0;entryDy=0;" parent="VxaLEeJSrOtXhIWzbfS_-227" edge="1">
          <mxGeometry relative="1" as="geometry">
            <mxPoint x="170" y="111.13999999999987" as="sourcePoint" />
          </mxGeometry>
        </mxCell>
        <mxCell id="VxaLEeJSrOtXhIWzbfS_-231" style="edgeStyle=orthogonalEdgeStyle;rounded=0;orthogonalLoop=1;jettySize=auto;html=1;exitX=1;exitY=0.5;exitDx=0;exitDy=0;entryX=0;entryY=0.5;entryDx=0;entryDy=0;fontSize=16;" parent="VxaLEeJSrOtXhIWzbfS_-227" source="VxaLEeJSrOtXhIWzbfS_-232" target="VxaLEeJSrOtXhIWzbfS_-233" edge="1">
          <mxGeometry relative="1" as="geometry" />
        </mxCell>
        <mxCell id="VxaLEeJSrOtXhIWzbfS_-232" value="DPT_CEI: Issued hold balance for cheque" style="rounded=1;whiteSpace=wrap;html=1;fontSize=16;" parent="VxaLEeJSrOtXhIWzbfS_-227" vertex="1">
          <mxGeometry x="20" y="50" width="180" height="60" as="geometry" />
        </mxCell>
        <mxCell id="VxaLEeJSrOtXhIWzbfS_-233" value="DPT_REC: Release hold balance for cheque" style="rounded=1;whiteSpace=wrap;html=1;fontSize=16;" parent="VxaLEeJSrOtXhIWzbfS_-227" vertex="1">
          <mxGeometry x="240" y="50" width="180" height="60" as="geometry" />
        </mxCell>
        <mxCell id="VxaLEeJSrOtXhIWzbfS_-234" value="DPT_CTS: Change status of stock" style="rounded=1;whiteSpace=wrap;html=1;fontSize=16;" parent="VxaLEeJSrOtXhIWzbfS_-227" vertex="1">
          <mxGeometry x="20" y="130" width="180" height="60" as="geometry" />
        </mxCell>
        <mxCell id="VxaLEeJSrOtXhIWzbfS_-235" value="DPT_CIQ: Cheque inquiry" style="rounded=1;whiteSpace=wrap;html=1;fontSize=16;" parent="VxaLEeJSrOtXhIWzbfS_-227" vertex="1">
          <mxGeometry x="240" y="130" width="180" height="60" as="geometry" />
        </mxCell>
        <mxCell id="VxaLEeJSrOtXhIWzbfS_-236" value="DPT_SLS: Cheque leaves status inquiry" style="rounded=1;whiteSpace=wrap;html=1;fontSize=16;" parent="VxaLEeJSrOtXhIWzbfS_-227" vertex="1">
          <mxGeometry x="20" y="210" width="400" height="40" as="geometry" />
        </mxCell>
        <mxCell id="VxaLEeJSrOtXhIWzbfS_-253" style="edgeStyle=orthogonalEdgeStyle;rounded=0;orthogonalLoop=1;jettySize=auto;html=1;entryX=0;entryY=0.5;entryDx=0;entryDy=0;fontSize=16;" parent="1" source="VxaLEeJSrOtXhIWzbfS_-241" target="VxaLEeJSrOtXhIWzbfS_-252" edge="1">
          <mxGeometry relative="1" as="geometry" />
        </mxCell>
        <mxCell id="VxaLEeJSrOtXhIWzbfS_-241" value="Close &lt;span style=&quot;background-color: transparent; color: light-dark(rgb(0, 0, 0), rgb(255, 255, 255));&quot;&gt;transactions&lt;/span&gt;" style="swimlane;whiteSpace=wrap;html=1;startSize=30;fontSize=16;" parent="1" vertex="1">
          <mxGeometry x="-1700" y="910" width="440" height="230" as="geometry" />
        </mxCell>
        <mxCell id="VxaLEeJSrOtXhIWzbfS_-242" value="DPT_CLS: Close deposit account" style="rounded=1;whiteSpace=wrap;html=1;fontSize=16;" parent="VxaLEeJSrOtXhIWzbfS_-241" vertex="1">
          <mxGeometry x="20" y="50" width="400" height="40" as="geometry" />
        </mxCell>
        <mxCell id="VxaLEeJSrOtXhIWzbfS_-243" value="DPT_DLS: Close deposit account by deposit" style="rounded=1;whiteSpace=wrap;html=1;fontSize=16;" parent="VxaLEeJSrOtXhIWzbfS_-241" vertex="1">
          <mxGeometry x="20" y="110" width="400" height="40" as="geometry" />
        </mxCell>
        <mxCell id="VxaLEeJSrOtXhIWzbfS_-244" value="DPT_MLS:Close deposit account by miscellaneous" style="rounded=1;whiteSpace=wrap;html=1;fontSize=16;" parent="VxaLEeJSrOtXhIWzbfS_-241" vertex="1">
          <mxGeometry x="20" y="170" width="400" height="40" as="geometry" />
        </mxCell>
        <mxCell id="VxaLEeJSrOtXhIWzbfS_-252" value="&lt;font&gt;End&lt;/font&gt;" style="ellipse;whiteSpace=wrap;html=1;fontSize=16;" parent="1" vertex="1">
          <mxGeometry x="-1220" y="1005" width="60" height="40" as="geometry" />
        </mxCell>
        <mxCell id="VxaLEeJSrOtXhIWzbfS_-260" style="edgeStyle=orthogonalEdgeStyle;rounded=0;orthogonalLoop=1;jettySize=auto;html=1;exitX=1;exitY=0.5;exitDx=0;exitDy=0;entryX=0.009;entryY=0.5;entryDx=0;entryDy=0;entryPerimeter=0;" parent="1" source="VxaLEeJSrOtXhIWzbfS_-77" target="VxaLEeJSrOtXhIWzbfS_-78" edge="1">
          <mxGeometry relative="1" as="geometry">
            <mxPoint x="-2960" y="86" as="targetPoint" />
          </mxGeometry>
        </mxCell>
        <mxCell id="VxaLEeJSrOtXhIWzbfS_-271" value="" style="endArrow=classic;html=1;rounded=0;exitX=0.989;exitY=0.495;exitDx=0;exitDy=0;exitPerimeter=0;entryX=0;entryY=0.5;entryDx=0;entryDy=0;" parent="1" source="VxaLEeJSrOtXhIWzbfS_-89" target="VxaLEeJSrOtXhIWzbfS_-88" edge="1">
          <mxGeometry width="50" height="50" relative="1" as="geometry">
            <mxPoint x="-2080" y="90" as="sourcePoint" />
            <mxPoint x="-2030" y="40" as="targetPoint" />
          </mxGeometry>
        </mxCell>
        <mxCell id="VxaLEeJSrOtXhIWzbfS_-272" value="&lt;b&gt;YES&lt;/b&gt;" style="edgeLabel;html=1;align=center;verticalAlign=middle;resizable=0;points=[];fontSize=16;" parent="VxaLEeJSrOtXhIWzbfS_-271" vertex="1" connectable="0">
          <mxGeometry x="-0.0588" y="-1" relative="1" as="geometry">
            <mxPoint x="-3" y="-2" as="offset" />
          </mxGeometry>
        </mxCell>
      </root>
    </mxGraphModel>
  </diagram>
  <diagram name="Savings" id="UCRu4h4jUY_qUIh2ARpC">
    <mxGraphModel dx="5385" dy="2194" grid="1" gridSize="10" guides="1" tooltips="1" connect="1" arrows="1" fold="1" page="0" pageScale="1" pageWidth="1169" pageHeight="1654" background="none" math="0" shadow="0">
      <root>
        <mxCell id="ayBLaQX_q_n4pw1qPN2o-0" />
        <mxCell id="ayBLaQX_q_n4pw1qPN2o-1" parent="ayBLaQX_q_n4pw1qPN2o-0" />
        <mxCell id="ayBLaQX_q_n4pw1qPN2o-2" value="DPT_OPN: Open new deposit account" style="html=1;overflow=block;blockSpacing=1;whiteSpace=wrap;fontSize=16;spacing=9;strokeOpacity=100;fillOpacity=0;rounded=1;absoluteArcSize=1;arcSize=9;fillColor=#000000;strokeWidth=1;lucidId=C0K84pjTFIGe;labelBackgroundColor=none;" parent="ayBLaQX_q_n4pw1qPN2o-1" vertex="1">
          <mxGeometry x="-3200" y="64" width="200" height="60" as="geometry" />
        </mxCell>
        <mxCell id="ayBLaQX_q_n4pw1qPN2o-3" style="edgeStyle=orthogonalEdgeStyle;rounded=0;orthogonalLoop=1;jettySize=auto;html=1;exitX=0.5;exitY=0;exitDx=0;exitDy=0;entryX=0.5;entryY=1;entryDx=0;entryDy=0;" parent="ayBLaQX_q_n4pw1qPN2o-1" source="ayBLaQX_q_n4pw1qPN2o-5" target="ayBLaQX_q_n4pw1qPN2o-6" edge="1">
          <mxGeometry relative="1" as="geometry" />
        </mxCell>
        <mxCell id="ayBLaQX_q_n4pw1qPN2o-4" value="&lt;b&gt;&lt;font style=&quot;font-size: 16px;&quot;&gt;NO&lt;/font&gt;&lt;/b&gt;" style="edgeLabel;html=1;align=center;verticalAlign=middle;resizable=0;points=[];" parent="ayBLaQX_q_n4pw1qPN2o-3" vertex="1" connectable="0">
          <mxGeometry x="-0.2071" relative="1" as="geometry">
            <mxPoint y="-4" as="offset" />
          </mxGeometry>
        </mxCell>
        <mxCell id="ayBLaQX_q_n4pw1qPN2o-5" value="Approve deposit account?" style="html=1;overflow=block;blockSpacing=1;whiteSpace=wrap;rhombus;fontSize=16;spacing=9;strokeOpacity=100;fillOpacity=0;rounded=1;absoluteArcSize=1;arcSize=9;fillColor=#000000;strokeWidth=1;lucidId=C0K8-goSnGRA;labelBackgroundColor=none;" parent="ayBLaQX_q_n4pw1qPN2o-1" vertex="1">
          <mxGeometry x="-2960" y="54" width="200" height="80" as="geometry" />
        </mxCell>
        <mxCell id="ayBLaQX_q_n4pw1qPN2o-6" value="DPT_REJ: Reject deposit account" style="html=1;overflow=block;blockSpacing=1;whiteSpace=wrap;fontSize=16;spacing=9;strokeOpacity=100;rounded=1;absoluteArcSize=1;arcSize=9;strokeWidth=1;lucidId=E1K8_GnM5wsY;labelBackgroundColor=none;fillColor=none;" parent="ayBLaQX_q_n4pw1qPN2o-1" vertex="1">
          <mxGeometry x="-2940" y="-66" width="160" height="60" as="geometry" />
        </mxCell>
        <mxCell id="ayBLaQX_q_n4pw1qPN2o-7" value="" style="html=1;jettySize=18;whiteSpace=wrap;fontSize=16;fontColor=#333333;fontStyle=1;strokeColor=#3a414a;strokeOpacity=100;strokeWidth=0.8;rounded=1;arcSize=12;edgeStyle=orthogonalEdgeStyle;jumpStyle=arc;startArrow=none;endArrow=block;endFill=1;exitX=0.988;exitY=0.5;exitPerimeter=0;entryX=-0.006;entryY=0.5;entryPerimeter=0;lucidId=O2K8zMyo41Df;labelBackgroundColor=none;" parent="ayBLaQX_q_n4pw1qPN2o-1" source="ayBLaQX_q_n4pw1qPN2o-5" target="ayBLaQX_q_n4pw1qPN2o-9" edge="1">
          <mxGeometry width="100" height="100" relative="1" as="geometry">
            <Array as="points" />
          </mxGeometry>
        </mxCell>
        <mxCell id="ayBLaQX_q_n4pw1qPN2o-8" value="&lt;b&gt;&lt;font style=&quot;font-size: 16px;&quot;&gt;YES&lt;/font&gt;&lt;/b&gt;" style="edgeLabel;html=1;align=center;verticalAlign=middle;resizable=0;points=[];" parent="ayBLaQX_q_n4pw1qPN2o-7" vertex="1" connectable="0">
          <mxGeometry x="0.1555" relative="1" as="geometry">
            <mxPoint x="-9" as="offset" />
          </mxGeometry>
        </mxCell>
        <mxCell id="hXkse047QSEkIyBsIKrg-0" style="edgeStyle=orthogonalEdgeStyle;rounded=0;orthogonalLoop=1;jettySize=auto;html=1;exitX=0.5;exitY=1;exitDx=0;exitDy=0;entryX=0.5;entryY=1;entryDx=0;entryDy=0;dashed=1;dashPattern=8 8;strokeColor=#FF0000;" edge="1" parent="ayBLaQX_q_n4pw1qPN2o-1" source="ayBLaQX_q_n4pw1qPN2o-9" target="ayBLaQX_q_n4pw1qPN2o-101">
          <mxGeometry relative="1" as="geometry" />
        </mxCell>
        <mxCell id="ayBLaQX_q_n4pw1qPN2o-9" value="DPT_APR: Approve deposit account" style="html=1;overflow=block;blockSpacing=1;whiteSpace=wrap;fontSize=16;spacing=9;strokeOpacity=100;rounded=1;absoluteArcSize=1;arcSize=9;strokeWidth=1;lucidId=Q2K8Qx9mygk0;labelBackgroundColor=none;fillColor=none;" parent="ayBLaQX_q_n4pw1qPN2o-1" vertex="1">
          <mxGeometry x="-2700" y="64" width="160" height="60" as="geometry" />
        </mxCell>
        <mxCell id="ayBLaQX_q_n4pw1qPN2o-10" style="edgeStyle=orthogonalEdgeStyle;rounded=0;orthogonalLoop=1;jettySize=auto;html=1;exitX=0.5;exitY=1;exitDx=0;exitDy=0;entryX=0;entryY=0.5;entryDx=0;entryDy=0;fontSize=16;" parent="ayBLaQX_q_n4pw1qPN2o-1" source="ayBLaQX_q_n4pw1qPN2o-14" target="ayBLaQX_q_n4pw1qPN2o-82" edge="1">
          <mxGeometry relative="1" as="geometry" />
        </mxCell>
        <mxCell id="ayBLaQX_q_n4pw1qPN2o-11" style="edgeStyle=orthogonalEdgeStyle;rounded=0;orthogonalLoop=1;jettySize=auto;html=1;exitX=0.5;exitY=1;exitDx=0;exitDy=0;entryX=0;entryY=0.5;entryDx=0;entryDy=0;fontSize=16;" parent="ayBLaQX_q_n4pw1qPN2o-1" source="ayBLaQX_q_n4pw1qPN2o-14" target="ayBLaQX_q_n4pw1qPN2o-92" edge="1">
          <mxGeometry relative="1" as="geometry" />
        </mxCell>
        <mxCell id="ayBLaQX_q_n4pw1qPN2o-12" style="edgeStyle=orthogonalEdgeStyle;rounded=0;orthogonalLoop=1;jettySize=auto;html=1;exitX=0.5;exitY=1;exitDx=0;exitDy=0;entryX=0;entryY=0.5;entryDx=0;entryDy=0;fontSize=16;" parent="ayBLaQX_q_n4pw1qPN2o-1" source="ayBLaQX_q_n4pw1qPN2o-14" target="ayBLaQX_q_n4pw1qPN2o-101" edge="1">
          <mxGeometry relative="1" as="geometry" />
        </mxCell>
        <mxCell id="ayBLaQX_q_n4pw1qPN2o-13" value="" style="edgeStyle=orthogonalEdgeStyle;rounded=0;orthogonalLoop=1;jettySize=auto;html=1;entryX=0;entryY=0.5;entryDx=0;entryDy=0;" parent="ayBLaQX_q_n4pw1qPN2o-1" source="ayBLaQX_q_n4pw1qPN2o-14" target="ayBLaQX_q_n4pw1qPN2o-34" edge="1">
          <mxGeometry relative="1" as="geometry" />
        </mxCell>
        <mxCell id="ayBLaQX_q_n4pw1qPN2o-14" value="DPT_SBI: 11802: Deposit savings book issue" style="html=1;overflow=block;blockSpacing=1;whiteSpace=wrap;fontSize=16;spacing=9;strokeOpacity=100;rounded=1;absoluteArcSize=1;arcSize=9;strokeWidth=1;lucidId=A4K8zdcVxU0g;labelBackgroundColor=none;" parent="ayBLaQX_q_n4pw1qPN2o-1" vertex="1">
          <mxGeometry x="-1940" y="65" width="220" height="60" as="geometry" />
        </mxCell>
        <mxCell id="ayBLaQX_q_n4pw1qPN2o-15" value="" style="edgeStyle=orthogonalEdgeStyle;rounded=0;orthogonalLoop=1;jettySize=auto;html=1;entryX=0.5;entryY=1;entryDx=0;entryDy=0;fontSize=16;" parent="ayBLaQX_q_n4pw1qPN2o-1" source="ayBLaQX_q_n4pw1qPN2o-17" target="ayBLaQX_q_n4pw1qPN2o-18" edge="1">
          <mxGeometry relative="1" as="geometry">
            <mxPoint x="-2049" y="-43" as="targetPoint" />
          </mxGeometry>
        </mxCell>
        <mxCell id="ayBLaQX_q_n4pw1qPN2o-16" value="&lt;b&gt;&lt;font style=&quot;font-size: 16px;&quot;&gt;NO&lt;/font&gt;&lt;/b&gt;" style="edgeLabel;html=1;align=center;verticalAlign=middle;resizable=0;points=[];" parent="ayBLaQX_q_n4pw1qPN2o-15" vertex="1" connectable="0">
          <mxGeometry x="0.068" y="1" relative="1" as="geometry">
            <mxPoint as="offset" />
          </mxGeometry>
        </mxCell>
        <mxCell id="ayBLaQX_q_n4pw1qPN2o-17" value="Do you have&amp;nbsp;&lt;div&gt;&quot;Passbook&amp;nbsp;&lt;span style=&quot;background-color: transparent; color: light-dark(rgb(0, 0, 0), rgb(255, 255, 255));&quot;&gt;for&amp;nbsp;&lt;/span&gt;&lt;/div&gt;&lt;div&gt;&lt;span style=&quot;background-color: transparent; color: light-dark(rgb(0, 0, 0), rgb(255, 255, 255));&quot;&gt;savings&quot;?&lt;/span&gt;&lt;/div&gt;" style="html=1;overflow=block;blockSpacing=1;whiteSpace=wrap;rhombus;fontSize=16;spacing=9;strokeOpacity=100;fillOpacity=0;rounded=1;absoluteArcSize=1;arcSize=9;fillColor=#000000;strokeWidth=1;lucidId=m6K8SB-cduvH;labelBackgroundColor=none;" parent="ayBLaQX_q_n4pw1qPN2o-1" vertex="1">
          <mxGeometry x="-2220" y="50" width="220" height="90" as="geometry" />
        </mxCell>
        <mxCell id="ayBLaQX_q_n4pw1qPN2o-18" value="Is the user in HO?" style="html=1;overflow=block;blockSpacing=1;whiteSpace=wrap;rhombus;fontSize=16;spacing=9;strokeOpacity=100;fillOpacity=0;rounded=1;absoluteArcSize=1;arcSize=9;fillColor=#000000;strokeWidth=1;lucidId=O8K8_05I5hbr;labelBackgroundColor=none;" parent="ayBLaQX_q_n4pw1qPN2o-1" vertex="1">
          <mxGeometry x="-2220" y="-310" width="220" height="90" as="geometry" />
        </mxCell>
        <mxCell id="ayBLaQX_q_n4pw1qPN2o-19" value="" style="html=1;jettySize=18;whiteSpace=wrap;fontSize=16;fontColor=#333333;fontStyle=1;strokeColor=#3a414a;strokeOpacity=100;strokeWidth=1;rounded=1;arcSize=12;edgeStyle=orthogonalEdgeStyle;startArrow=none;endArrow=block;endFill=1;exitX=0.5;exitY=0.002;exitPerimeter=0;lucidId=t-K8pr-iaynm;labelBackgroundColor=none;entryX=0;entryY=0.5;entryDx=0;entryDy=0;" parent="ayBLaQX_q_n4pw1qPN2o-1" source="ayBLaQX_q_n4pw1qPN2o-18" target="ayBLaQX_q_n4pw1qPN2o-56" edge="1">
          <mxGeometry width="100" height="100" relative="1" as="geometry">
            <Array as="points" />
            <mxPoint x="-2100" y="-730" as="targetPoint" />
          </mxGeometry>
        </mxCell>
        <mxCell id="ayBLaQX_q_n4pw1qPN2o-20" value="&lt;b&gt;&lt;font style=&quot;font-size: 16px;&quot;&gt;YES&lt;/font&gt;&lt;/b&gt;" style="edgeLabel;html=1;align=center;verticalAlign=middle;resizable=0;points=[];" parent="ayBLaQX_q_n4pw1qPN2o-19" vertex="1" connectable="0">
          <mxGeometry x="-0.2648" y="-1" relative="1" as="geometry">
            <mxPoint y="1" as="offset" />
          </mxGeometry>
        </mxCell>
        <mxCell id="ayBLaQX_q_n4pw1qPN2o-21" value="" style="html=1;jettySize=18;whiteSpace=wrap;fontSize=16;fontColor=#333333;fontStyle=1;strokeColor=#3a414a;strokeOpacity=100;strokeWidth=1;rounded=1;arcSize=12;edgeStyle=orthogonalEdgeStyle;startArrow=none;endArrow=block;endFill=1;exitX=0.989;exitY=0.5;exitPerimeter=0;lucidId=diL8J1pEU5sI;labelBackgroundColor=none;entryX=0;entryY=0.5;entryDx=0;entryDy=0;" parent="ayBLaQX_q_n4pw1qPN2o-1" source="ayBLaQX_q_n4pw1qPN2o-18" target="ayBLaQX_q_n4pw1qPN2o-39" edge="1">
          <mxGeometry width="100" height="100" relative="1" as="geometry">
            <Array as="points" />
            <mxPoint x="-1890" y="-275" as="targetPoint" />
          </mxGeometry>
        </mxCell>
        <mxCell id="ayBLaQX_q_n4pw1qPN2o-22" value="&lt;b&gt;&lt;font style=&quot;font-size: 16px;&quot;&gt;NO&lt;/font&gt;&lt;/b&gt;" style="edgeLabel;html=1;align=center;verticalAlign=middle;resizable=0;points=[];" parent="ayBLaQX_q_n4pw1qPN2o-21" vertex="1" connectable="0">
          <mxGeometry x="-0.1742" y="1" relative="1" as="geometry">
            <mxPoint x="2" as="offset" />
          </mxGeometry>
        </mxCell>
        <mxCell id="ayBLaQX_q_n4pw1qPN2o-23" value="" style="html=1;jettySize=18;whiteSpace=wrap;fontSize=16;strokeColor=#3a414a;strokeOpacity=100;strokeWidth=0.8;rounded=1;arcSize=12;edgeStyle=orthogonalEdgeStyle;startArrow=none;endArrow=block;endFill=1;exitX=0.5;exitY=-0.01;exitPerimeter=0;entryX=0.5;entryY=1.015;entryPerimeter=0;lucidId=2zL8Nh6T.o6e;labelBackgroundColor=none;" parent="ayBLaQX_q_n4pw1qPN2o-1" source="ayBLaQX_q_n4pw1qPN2o-6" edge="1">
          <mxGeometry width="100" height="100" relative="1" as="geometry">
            <Array as="points" />
            <mxPoint x="-2860" y="-105.40000000000009" as="targetPoint" />
          </mxGeometry>
        </mxCell>
        <mxCell id="ayBLaQX_q_n4pw1qPN2o-24" value="End" style="html=1;overflow=block;blockSpacing=1;whiteSpace=wrap;ellipse;fontSize=16;spacing=9;strokeOpacity=100;rounded=1;absoluteArcSize=1;arcSize=9;strokeWidth=NaN;lucidId=2zL8Q2and7EK;labelBackgroundColor=none;" parent="ayBLaQX_q_n4pw1qPN2o-1" vertex="1">
          <mxGeometry x="-2890" y="-120" width="60" height="40" as="geometry" />
        </mxCell>
        <mxCell id="ayBLaQX_q_n4pw1qPN2o-25" value="" style="html=1;jettySize=18;whiteSpace=wrap;fontSize=13;strokeColor=#e81313;strokeOpacity=100;dashed=1;fixDash=1;dashPattern=8 8;strokeWidth=0.8;rounded=1;arcSize=12;edgeStyle=orthogonalEdgeStyle;startArrow=none;endArrow=block;endFill=1;exitX=0.5;exitY=1.008;exitPerimeter=0;entryX=0.5;entryY=-0.008;entryPerimeter=0;lucidId=LBL8KxfsIMmQ;labelBackgroundColor=none;" parent="ayBLaQX_q_n4pw1qPN2o-1" edge="1">
          <mxGeometry width="100" height="100" relative="1" as="geometry">
            <Array as="points" />
            <mxPoint x="-1502.5" y="-228.2639999999999" as="sourcePoint" />
          </mxGeometry>
        </mxCell>
        <mxCell id="ayBLaQX_q_n4pw1qPN2o-26" value="" style="edgeStyle=orthogonalEdgeStyle;rounded=0;orthogonalLoop=1;jettySize=auto;html=1;fontSize=16;" parent="ayBLaQX_q_n4pw1qPN2o-1" source="ayBLaQX_q_n4pw1qPN2o-27" target="ayBLaQX_q_n4pw1qPN2o-2" edge="1">
          <mxGeometry relative="1" as="geometry" />
        </mxCell>
        <mxCell id="ayBLaQX_q_n4pw1qPN2o-27" value="&lt;font&gt;Begin&lt;/font&gt;" style="ellipse;whiteSpace=wrap;html=1;fontSize=16;" parent="ayBLaQX_q_n4pw1qPN2o-1" vertex="1">
          <mxGeometry x="-3300" y="74" width="60" height="40" as="geometry" />
        </mxCell>
        <mxCell id="ayBLaQX_q_n4pw1qPN2o-28" value="Deposit transactions" style="swimlane;whiteSpace=wrap;html=1;fontSize=16;startSize=30;" parent="ayBLaQX_q_n4pw1qPN2o-1" vertex="1">
          <mxGeometry x="-2500" y="-51.5" width="240" height="291.5" as="geometry">
            <mxRectangle x="-2470" y="-53" width="190" height="30" as="alternateBounds" />
          </mxGeometry>
        </mxCell>
        <mxCell id="ayBLaQX_q_n4pw1qPN2o-29" value="DPT_CDP: Cash deposit" style="html=1;overflow=block;blockSpacing=1;whiteSpace=wrap;fontSize=16;spacing=9;strokeOpacity=100;rounded=1;absoluteArcSize=1;arcSize=9;strokeWidth=1;lucidId=Bm08SP1lj_z.;labelBackgroundColor=none;" parent="ayBLaQX_q_n4pw1qPN2o-28" vertex="1">
          <mxGeometry x="20" y="51.5" width="200" height="40" as="geometry" />
        </mxCell>
        <mxCell id="ayBLaQX_q_n4pw1qPN2o-30" value="DPT_TRF: Transfer from deposit account to deposit account" style="html=1;overflow=block;blockSpacing=1;whiteSpace=wrap;fontSize=16;spacing=9;strokeOpacity=100;rounded=1;absoluteArcSize=1;arcSize=9;strokeWidth=1;lucidId=zyL8M3RWzBDG;labelBackgroundColor=none;" parent="ayBLaQX_q_n4pw1qPN2o-28" vertex="1">
          <mxGeometry x="20" y="111.5" width="200" height="80" as="geometry" />
        </mxCell>
        <mxCell id="ayBLaQX_q_n4pw1qPN2o-31" value="DPT_MDP: Miscellaneous deposit" style="html=1;overflow=block;blockSpacing=1;whiteSpace=wrap;fontSize=16;spacing=9;strokeOpacity=100;rounded=1;absoluteArcSize=1;arcSize=9;strokeWidth=1;lucidId=bn08uZzj-w-n;labelBackgroundColor=none;" parent="ayBLaQX_q_n4pw1qPN2o-28" vertex="1">
          <mxGeometry x="20" y="211.5" width="200" height="60" as="geometry" />
        </mxCell>
        <mxCell id="ayBLaQX_q_n4pw1qPN2o-32" value="" style="endArrow=classic;html=1;rounded=0;exitX=1;exitY=0.5;exitDx=0;exitDy=0;fontSize=16;entryX=0.024;entryY=0.5;entryDx=0;entryDy=0;entryPerimeter=0;" parent="ayBLaQX_q_n4pw1qPN2o-1" source="ayBLaQX_q_n4pw1qPN2o-28" target="ayBLaQX_q_n4pw1qPN2o-17" edge="1">
          <mxGeometry width="50" height="50" relative="1" as="geometry">
            <mxPoint x="-2375" y="166" as="sourcePoint" />
            <mxPoint x="-2220" y="95" as="targetPoint" />
          </mxGeometry>
        </mxCell>
        <mxCell id="ayBLaQX_q_n4pw1qPN2o-33" value="" style="endArrow=classic;html=1;rounded=0;exitX=1;exitY=0.5;exitDx=0;exitDy=0;entryX=0;entryY=0.5;entryDx=0;entryDy=0;fontSize=16;" parent="ayBLaQX_q_n4pw1qPN2o-1" source="ayBLaQX_q_n4pw1qPN2o-9" target="ayBLaQX_q_n4pw1qPN2o-28" edge="1">
          <mxGeometry width="50" height="50" relative="1" as="geometry">
            <mxPoint x="-2370" y="64" as="sourcePoint" />
            <mxPoint x="-2320" y="14" as="targetPoint" />
          </mxGeometry>
        </mxCell>
        <mxCell id="ayBLaQX_q_n4pw1qPN2o-34" value="Withdrawal transactions" style="swimlane;whiteSpace=wrap;html=1;fontSize=16;startSize=30;" parent="ayBLaQX_q_n4pw1qPN2o-1" vertex="1">
          <mxGeometry x="-1680" y="-30" width="440" height="250" as="geometry">
            <mxRectangle x="-1700" y="-29.75" width="190" height="30" as="alternateBounds" />
          </mxGeometry>
        </mxCell>
        <mxCell id="ayBLaQX_q_n4pw1qPN2o-35" value="DPT_CWR: 1120: Cash withdrawal" style="html=1;overflow=block;blockSpacing=1;whiteSpace=wrap;fontSize=16;spacing=9;strokeOpacity=100;rounded=1;absoluteArcSize=1;arcSize=9;strokeWidth=1;lucidId=Bm08SP1lj_z.;labelBackgroundColor=none;" parent="ayBLaQX_q_n4pw1qPN2o-34" vertex="1">
          <mxGeometry x="20" y="50" width="400" height="40" as="geometry" />
        </mxCell>
        <mxCell id="ayBLaQX_q_n4pw1qPN2o-36" value="DPT_MWR: 1122: Miscellaneous withdrawal" style="html=1;overflow=block;blockSpacing=1;whiteSpace=wrap;fontSize=16;spacing=9;strokeOpacity=100;rounded=1;absoluteArcSize=1;arcSize=9;strokeWidth=1;lucidId=zyL8M3RWzBDG;labelBackgroundColor=none;" parent="ayBLaQX_q_n4pw1qPN2o-34" vertex="1">
          <mxGeometry x="20" y="110" width="400" height="40" as="geometry" />
        </mxCell>
        <mxCell id="ayBLaQX_q_n4pw1qPN2o-37" value="DPT_TRF: Transfer from deposit account to deposit account" style="html=1;overflow=block;blockSpacing=1;whiteSpace=wrap;fontSize=16;spacing=9;strokeOpacity=100;rounded=1;absoluteArcSize=1;arcSize=9;strokeWidth=1;lucidId=bn08uZzj-w-n;labelBackgroundColor=none;" parent="ayBLaQX_q_n4pw1qPN2o-34" vertex="1">
          <mxGeometry x="20" y="170" width="400" height="60" as="geometry" />
        </mxCell>
        <mxCell id="ayBLaQX_q_n4pw1qPN2o-38" style="edgeStyle=orthogonalEdgeStyle;rounded=0;orthogonalLoop=1;jettySize=auto;html=1;exitX=1;exitY=0.5;exitDx=0;exitDy=0;entryX=0.5;entryY=0;entryDx=0;entryDy=0;fontSize=16;" parent="ayBLaQX_q_n4pw1qPN2o-1" source="ayBLaQX_q_n4pw1qPN2o-39" target="ayBLaQX_q_n4pw1qPN2o-14" edge="1">
          <mxGeometry relative="1" as="geometry">
            <mxPoint x="-1040" y="-265" as="sourcePoint" />
            <mxPoint x="-1820" y="80" as="targetPoint" />
            <Array as="points">
              <mxPoint x="-1030" y="-265" />
              <mxPoint x="-1030" y="-60" />
              <mxPoint x="-1830" y="-60" />
            </Array>
          </mxGeometry>
        </mxCell>
        <mxCell id="ayBLaQX_q_n4pw1qPN2o-39" value="Registration Stock at Branch" style="swimlane;whiteSpace=wrap;html=1;fontSize=16;startSize=30;" parent="ayBLaQX_q_n4pw1qPN2o-1" vertex="1">
          <mxGeometry x="-1940" y="-440" width="880" height="350" as="geometry">
            <mxRectangle x="-1890" y="-500" width="190" height="30" as="alternateBounds" />
          </mxGeometry>
        </mxCell>
        <mxCell id="ayBLaQX_q_n4pw1qPN2o-40" value="" style="edgeStyle=orthogonalEdgeStyle;rounded=0;orthogonalLoop=1;jettySize=auto;html=1;fontSize=16;" parent="ayBLaQX_q_n4pw1qPN2o-39" source="ayBLaQX_q_n4pw1qPN2o-41" target="ayBLaQX_q_n4pw1qPN2o-42" edge="1">
          <mxGeometry relative="1" as="geometry" />
        </mxCell>
        <mxCell id="ayBLaQX_q_n4pw1qPN2o-41" value="&lt;font&gt;Begin&lt;/font&gt;" style="ellipse;whiteSpace=wrap;html=1;fontSize=16;" parent="ayBLaQX_q_n4pw1qPN2o-39" vertex="1">
          <mxGeometry x="20" y="180" width="60" height="40" as="geometry" />
        </mxCell>
        <mxCell id="ayBLaQX_q_n4pw1qPN2o-42" value="DPT_SRG: Stock registration" style="html=1;overflow=block;blockSpacing=1;whiteSpace=wrap;fontSize=16;spacing=9;strokeOpacity=100;fillOpacity=0;rounded=1;absoluteArcSize=1;arcSize=9;fillColor=#000000;strokeWidth=1;lucidId=diL8n7n7nvlU;labelBackgroundColor=none;" parent="ayBLaQX_q_n4pw1qPN2o-39" vertex="1">
          <mxGeometry x="120" y="170" width="160" height="60" as="geometry" />
        </mxCell>
        <mxCell id="ayBLaQX_q_n4pw1qPN2o-43" style="edgeStyle=orthogonalEdgeStyle;rounded=0;orthogonalLoop=1;jettySize=auto;html=1;exitX=0.5;exitY=1;exitDx=0;exitDy=0;entryX=0.5;entryY=0;entryDx=0;entryDy=0;dashed=1;dashPattern=8 8;strokeColor=#FF0000;fontSize=16;" parent="ayBLaQX_q_n4pw1qPN2o-39" source="ayBLaQX_q_n4pw1qPN2o-44" target="ayBLaQX_q_n4pw1qPN2o-50" edge="1">
          <mxGeometry relative="1" as="geometry" />
        </mxCell>
        <mxCell id="ayBLaQX_q_n4pw1qPN2o-44" value="DPT_SAT: Stock assign to Staff" style="html=1;overflow=block;blockSpacing=1;whiteSpace=wrap;fontSize=16;spacing=9;strokeOpacity=100;fillOpacity=0;rounded=1;absoluteArcSize=1;arcSize=9;fillColor=#000000;strokeWidth=1;lucidId=siL8XiZfh94J;labelBackgroundColor=none;" parent="ayBLaQX_q_n4pw1qPN2o-39" vertex="1">
          <mxGeometry x="321" y="170" width="200" height="60" as="geometry" />
        </mxCell>
        <mxCell id="ayBLaQX_q_n4pw1qPN2o-45" value="" style="edgeStyle=orthogonalEdgeStyle;rounded=0;orthogonalLoop=1;jettySize=auto;html=1;fontSize=16;" parent="ayBLaQX_q_n4pw1qPN2o-39" source="ayBLaQX_q_n4pw1qPN2o-46" target="ayBLaQX_q_n4pw1qPN2o-54" edge="1">
          <mxGeometry relative="1" as="geometry" />
        </mxCell>
        <mxCell id="ayBLaQX_q_n4pw1qPN2o-46" value="DPT_CCR: Stock confirm received" style="html=1;overflow=block;blockSpacing=1;whiteSpace=wrap;fontSize=16;spacing=9;strokeOpacity=100;fillOpacity=0;rounded=1;absoluteArcSize=1;arcSize=9;fillColor=#000000;strokeWidth=1;lucidId=GpL8sMLPmteC;labelBackgroundColor=none;" parent="ayBLaQX_q_n4pw1qPN2o-39" vertex="1">
          <mxGeometry x="561" y="170" width="200" height="60" as="geometry" />
        </mxCell>
        <mxCell id="ayBLaQX_q_n4pw1qPN2o-47" style="edgeStyle=orthogonalEdgeStyle;rounded=0;orthogonalLoop=1;jettySize=auto;html=1;exitX=0.5;exitY=0;exitDx=0;exitDy=0;dashed=1;dashPattern=8 8;strokeColor=#FF0000;" parent="ayBLaQX_q_n4pw1qPN2o-39" source="ayBLaQX_q_n4pw1qPN2o-48" edge="1">
          <mxGeometry relative="1" as="geometry">
            <mxPoint x="300" y="200" as="targetPoint" />
          </mxGeometry>
        </mxCell>
        <mxCell id="ayBLaQX_q_n4pw1qPN2o-48" value="DPT_CRT: 11833: Stock returned" style="html=1;overflow=block;blockSpacing=1;whiteSpace=wrap;fontSize=16;spacing=9;strokeOpacity=100;fillOpacity=0;rounded=1;absoluteArcSize=1;arcSize=9;fillColor=#000000;strokeWidth=1;lucidId=5BL8WdrcK.6P;labelBackgroundColor=none;" parent="ayBLaQX_q_n4pw1qPN2o-39" vertex="1">
          <mxGeometry x="561" y="70" width="200" height="60" as="geometry" />
        </mxCell>
        <mxCell id="ayBLaQX_q_n4pw1qPN2o-49" style="edgeStyle=orthogonalEdgeStyle;rounded=0;orthogonalLoop=1;jettySize=auto;html=1;exitX=0;exitY=0.5;exitDx=0;exitDy=0;dashed=1;dashPattern=8 8;strokeColor=#FF0000;" parent="ayBLaQX_q_n4pw1qPN2o-39" source="ayBLaQX_q_n4pw1qPN2o-50" edge="1">
          <mxGeometry relative="1" as="geometry">
            <mxPoint x="300" y="200" as="targetPoint" />
          </mxGeometry>
        </mxCell>
        <mxCell id="ayBLaQX_q_n4pw1qPN2o-50" value="DPT_SRA: 11835: Reject assigned stock" style="html=1;overflow=block;blockSpacing=1;whiteSpace=wrap;fontSize=16;spacing=9;strokeOpacity=100;fillOpacity=0;rounded=1;absoluteArcSize=1;arcSize=9;fillColor=#000000;strokeWidth=1;lucidId=LBL8hcJfMu7N;labelBackgroundColor=none;" parent="ayBLaQX_q_n4pw1qPN2o-39" vertex="1">
          <mxGeometry x="321" y="270" width="200" height="60" as="geometry" />
        </mxCell>
        <mxCell id="ayBLaQX_q_n4pw1qPN2o-51" value="" style="html=1;jettySize=18;whiteSpace=wrap;fontSize=16;strokeColor=#3a414a;strokeOpacity=100;strokeWidth=1;rounded=1;arcSize=12;edgeStyle=orthogonalEdgeStyle;startArrow=none;endArrow=block;endFill=1;exitX=1.004;exitY=0.5;exitPerimeter=0;entryX=-0.004;entryY=0.5;entryPerimeter=0;lucidId=siL8WX6Wz.jX;labelBackgroundColor=none;" parent="ayBLaQX_q_n4pw1qPN2o-39" source="ayBLaQX_q_n4pw1qPN2o-42" target="ayBLaQX_q_n4pw1qPN2o-44" edge="1">
          <mxGeometry width="100" height="100" relative="1" as="geometry">
            <Array as="points" />
          </mxGeometry>
        </mxCell>
        <mxCell id="ayBLaQX_q_n4pw1qPN2o-52" value="" style="html=1;jettySize=18;whiteSpace=wrap;fontSize=16;strokeColor=#3a414a;strokeOpacity=100;strokeWidth=1;rounded=1;arcSize=12;edgeStyle=orthogonalEdgeStyle;startArrow=none;endArrow=block;endFill=1;exitX=1.004;exitY=0.5;exitPerimeter=0;entryX=-0.004;entryY=0.5;entryPerimeter=0;lucidId=GpL81wC2y2YN;labelBackgroundColor=none;" parent="ayBLaQX_q_n4pw1qPN2o-39" source="ayBLaQX_q_n4pw1qPN2o-44" target="ayBLaQX_q_n4pw1qPN2o-46" edge="1">
          <mxGeometry width="100" height="100" relative="1" as="geometry">
            <Array as="points" />
          </mxGeometry>
        </mxCell>
        <mxCell id="ayBLaQX_q_n4pw1qPN2o-53" value="" style="html=1;jettySize=18;whiteSpace=wrap;fontSize=16;strokeColor=#e81313;strokeOpacity=100;dashed=1;fixDash=1;dashPattern=8 8;strokeWidth=1;rounded=1;arcSize=12;edgeStyle=orthogonalEdgeStyle;startArrow=none;endArrow=block;endFill=1;exitX=0.5;exitY=-0.008;exitPerimeter=0;entryX=0.5;entryY=1.008;entryPerimeter=0;lucidId=5BL8zqoS5Ayx;labelBackgroundColor=none;" parent="ayBLaQX_q_n4pw1qPN2o-39" source="ayBLaQX_q_n4pw1qPN2o-46" target="ayBLaQX_q_n4pw1qPN2o-48" edge="1">
          <mxGeometry width="100" height="100" relative="1" as="geometry">
            <Array as="points" />
          </mxGeometry>
        </mxCell>
        <mxCell id="ayBLaQX_q_n4pw1qPN2o-54" value="&lt;font&gt;End&lt;/font&gt;" style="ellipse;whiteSpace=wrap;html=1;fontSize=16;" parent="ayBLaQX_q_n4pw1qPN2o-39" vertex="1">
          <mxGeometry x="800" y="180" width="60" height="40" as="geometry" />
        </mxCell>
        <mxCell id="ayBLaQX_q_n4pw1qPN2o-55" style="edgeStyle=orthogonalEdgeStyle;rounded=0;orthogonalLoop=1;jettySize=auto;html=1;exitX=1;exitY=0.5;exitDx=0;exitDy=0;" parent="ayBLaQX_q_n4pw1qPN2o-1" source="ayBLaQX_q_n4pw1qPN2o-56" edge="1">
          <mxGeometry relative="1" as="geometry">
            <mxPoint x="-1080" y="-60" as="targetPoint" />
            <Array as="points">
              <mxPoint x="-550" y="-665" />
              <mxPoint x="-550" y="-60" />
            </Array>
          </mxGeometry>
        </mxCell>
        <mxCell id="ayBLaQX_q_n4pw1qPN2o-56" value="Registration Stock at HO" style="swimlane;whiteSpace=wrap;html=1;fontSize=16;startSize=30;" parent="ayBLaQX_q_n4pw1qPN2o-1" vertex="1">
          <mxGeometry x="-1940" y="-840" width="1360" height="370" as="geometry">
            <mxRectangle x="-1890" y="-980" width="170" height="30" as="alternateBounds" />
          </mxGeometry>
        </mxCell>
        <mxCell id="ayBLaQX_q_n4pw1qPN2o-57" value="" style="html=1;jettySize=18;whiteSpace=wrap;fontSize=16;strokeColor=#3a414a;strokeOpacity=100;strokeWidth=0.8;rounded=1;arcSize=12;edgeStyle=orthogonalEdgeStyle;startArrow=none;endArrow=block;endFill=1;exitX=1.004;exitY=0.5;exitPerimeter=0;entryX=-0.004;entryY=0.5;entryPerimeter=0;lucidId=E-K8I0MomM04;labelBackgroundColor=none;" parent="ayBLaQX_q_n4pw1qPN2o-56" source="ayBLaQX_q_n4pw1qPN2o-77" target="ayBLaQX_q_n4pw1qPN2o-58" edge="1">
          <mxGeometry width="100" height="100" relative="1" as="geometry">
            <Array as="points" />
          </mxGeometry>
        </mxCell>
        <mxCell id="ayBLaQX_q_n4pw1qPN2o-58" value="DPT_SAB: 11831: Stock assigned to branch" style="html=1;overflow=block;blockSpacing=1;whiteSpace=wrap;fontSize=16;spacing=9;strokeOpacity=100;fillOpacity=0;rounded=1;absoluteArcSize=1;arcSize=9;fillColor=#000000;strokeWidth=1;lucidId=E-K8VwSi.VNv;labelBackgroundColor=none;" parent="ayBLaQX_q_n4pw1qPN2o-56" vertex="1">
          <mxGeometry x="320" y="170" width="200" height="60" as="geometry" />
        </mxCell>
        <mxCell id="ayBLaQX_q_n4pw1qPN2o-59" value="" style="html=1;jettySize=18;whiteSpace=wrap;fontSize=16;strokeColor=#3a414a;strokeOpacity=100;strokeWidth=0.8;rounded=1;arcSize=12;edgeStyle=orthogonalEdgeStyle;startArrow=none;endArrow=block;endFill=1;exitX=1.004;exitY=0.5;exitPerimeter=0;entryX=-0.004;entryY=0.5;entryPerimeter=0;lucidId=B_K8auC.OmKs;labelBackgroundColor=none;" parent="ayBLaQX_q_n4pw1qPN2o-56" source="ayBLaQX_q_n4pw1qPN2o-58" target="ayBLaQX_q_n4pw1qPN2o-60" edge="1">
          <mxGeometry width="100" height="100" relative="1" as="geometry">
            <Array as="points" />
          </mxGeometry>
        </mxCell>
        <mxCell id="ayBLaQX_q_n4pw1qPN2o-60" value="DPT_CCR: Stock confirm received (branch confirm)" style="html=1;overflow=block;blockSpacing=1;whiteSpace=wrap;fontSize=16;spacing=9;strokeOpacity=100;fillOpacity=0;rounded=1;absoluteArcSize=1;arcSize=9;fillColor=#000000;strokeWidth=1;lucidId=B_K8KtoC-B.U;labelBackgroundColor=none;" parent="ayBLaQX_q_n4pw1qPN2o-56" vertex="1">
          <mxGeometry x="560" y="170" width="200" height="60" as="geometry" />
        </mxCell>
        <mxCell id="ayBLaQX_q_n4pw1qPN2o-61" value="" style="html=1;jettySize=18;whiteSpace=wrap;fontSize=16;strokeColor=#3a414a;strokeOpacity=100;strokeWidth=0.8;rounded=1;arcSize=12;edgeStyle=orthogonalEdgeStyle;startArrow=none;endArrow=block;endFill=1;entryX=0;entryY=0.5;lucidId=f.K8d7xa3UE9;labelBackgroundColor=none;entryDx=0;entryDy=0;" parent="ayBLaQX_q_n4pw1qPN2o-56" target="ayBLaQX_q_n4pw1qPN2o-63" edge="1">
          <mxGeometry width="100" height="100" relative="1" as="geometry">
            <Array as="points" />
            <mxPoint x="760" y="200.09" as="sourcePoint" />
            <mxPoint x="833.4380000000001" y="199.89" as="targetPoint" />
          </mxGeometry>
        </mxCell>
        <mxCell id="ayBLaQX_q_n4pw1qPN2o-62" value="" style="edgeStyle=orthogonalEdgeStyle;rounded=0;orthogonalLoop=1;jettySize=auto;html=1;" parent="ayBLaQX_q_n4pw1qPN2o-56" source="ayBLaQX_q_n4pw1qPN2o-63" target="ayBLaQX_q_n4pw1qPN2o-66" edge="1">
          <mxGeometry relative="1" as="geometry" />
        </mxCell>
        <mxCell id="ayBLaQX_q_n4pw1qPN2o-63" value="DPT_SAT: Stock assign to Staff" style="html=1;overflow=block;blockSpacing=1;whiteSpace=wrap;fontSize=16;spacing=9;strokeOpacity=100;fillOpacity=0;rounded=1;absoluteArcSize=1;arcSize=9;fillColor=#000000;strokeWidth=1;lucidId=f.K8ricRqGn2;labelBackgroundColor=none;" parent="ayBLaQX_q_n4pw1qPN2o-56" vertex="1">
          <mxGeometry x="800" y="170" width="200" height="60" as="geometry" />
        </mxCell>
        <mxCell id="ayBLaQX_q_n4pw1qPN2o-64" value="" style="edgeStyle=orthogonalEdgeStyle;rounded=0;orthogonalLoop=1;jettySize=auto;html=1;fontSize=16;" parent="ayBLaQX_q_n4pw1qPN2o-56" source="ayBLaQX_q_n4pw1qPN2o-66" target="ayBLaQX_q_n4pw1qPN2o-80" edge="1">
          <mxGeometry relative="1" as="geometry" />
        </mxCell>
        <mxCell id="ayBLaQX_q_n4pw1qPN2o-65" value="" style="edgeStyle=orthogonalEdgeStyle;rounded=0;orthogonalLoop=1;jettySize=auto;html=1;dashed=1;dashPattern=8 8;strokeColor=#FF0000;" parent="ayBLaQX_q_n4pw1qPN2o-56" source="ayBLaQX_q_n4pw1qPN2o-66" target="ayBLaQX_q_n4pw1qPN2o-74" edge="1">
          <mxGeometry relative="1" as="geometry" />
        </mxCell>
        <mxCell id="ayBLaQX_q_n4pw1qPN2o-66" value="DPT_CCR: Stock confirm received (teller confirm)" style="html=1;overflow=block;blockSpacing=1;whiteSpace=wrap;fontSize=16;spacing=9;strokeOpacity=100;fillOpacity=0;rounded=1;absoluteArcSize=1;arcSize=9;fillColor=#000000;strokeWidth=1;lucidId=t.K89AFciOv3;labelBackgroundColor=none;" parent="ayBLaQX_q_n4pw1qPN2o-56" vertex="1">
          <mxGeometry x="1040" y="170" width="200" height="60" as="geometry" />
        </mxCell>
        <mxCell id="ayBLaQX_q_n4pw1qPN2o-67" value="" style="html=1;jettySize=18;whiteSpace=wrap;fontSize=16;strokeColor=#FF0000;strokeOpacity=100;dashed=1;fixDash=1;dashPattern=8 8;strokeWidth=1;rounded=1;arcSize=12;edgeStyle=orthogonalEdgeStyle;startArrow=none;endArrow=block;endFill=1;exitX=0.5;exitY=1.008;exitPerimeter=0;entryX=0.5;entryY=-0.008;entryPerimeter=0;lucidId=7~K8s93Qj5ms;labelBackgroundColor=none;" parent="ayBLaQX_q_n4pw1qPN2o-56" source="ayBLaQX_q_n4pw1qPN2o-58" target="ayBLaQX_q_n4pw1qPN2o-70" edge="1">
          <mxGeometry width="100" height="100" relative="1" as="geometry">
            <Array as="points" />
          </mxGeometry>
        </mxCell>
        <mxCell id="ayBLaQX_q_n4pw1qPN2o-68" value="" style="html=1;jettySize=18;whiteSpace=wrap;fontSize=16;strokeColor=#FF0000;strokeOpacity=100;dashed=1;fixDash=1;dashPattern=8 8;strokeWidth=1;rounded=1;arcSize=12;edgeStyle=orthogonalEdgeStyle;startArrow=none;endArrow=block;endFill=1;exitX=0.5;exitY=1.008;exitPerimeter=0;entryX=0.5;entryY=-0.008;entryPerimeter=0;lucidId=SdL8UjF9IZxt;labelBackgroundColor=none;" parent="ayBLaQX_q_n4pw1qPN2o-56" source="ayBLaQX_q_n4pw1qPN2o-63" target="ayBLaQX_q_n4pw1qPN2o-76" edge="1">
          <mxGeometry width="100" height="100" relative="1" as="geometry">
            <Array as="points" />
          </mxGeometry>
        </mxCell>
        <mxCell id="ayBLaQX_q_n4pw1qPN2o-69" style="edgeStyle=orthogonalEdgeStyle;rounded=0;orthogonalLoop=1;jettySize=auto;html=1;dashed=1;dashPattern=8 8;strokeColor=#FF0000;" parent="ayBLaQX_q_n4pw1qPN2o-56" source="ayBLaQX_q_n4pw1qPN2o-70" edge="1">
          <mxGeometry relative="1" as="geometry">
            <mxPoint x="300" y="200.09" as="targetPoint" />
          </mxGeometry>
        </mxCell>
        <mxCell id="ayBLaQX_q_n4pw1qPN2o-70" value="DPT_SRA: 11835: Reject assigned stock" style="html=1;overflow=block;blockSpacing=1;whiteSpace=wrap;fontSize=16;spacing=9;strokeOpacity=100;fillOpacity=0;rounded=1;absoluteArcSize=1;arcSize=9;fillColor=#000000;strokeWidth=1;lucidId=7~K8_bC7LJLh;labelBackgroundColor=none;" parent="ayBLaQX_q_n4pw1qPN2o-56" vertex="1">
          <mxGeometry x="320" y="270" width="200" height="60" as="geometry" />
        </mxCell>
        <mxCell id="ayBLaQX_q_n4pw1qPN2o-71" style="edgeStyle=orthogonalEdgeStyle;rounded=0;orthogonalLoop=1;jettySize=auto;html=1;exitX=0.5;exitY=0;exitDx=0;exitDy=0;dashed=1;dashPattern=8 8;strokeColor=#FF0000;" parent="ayBLaQX_q_n4pw1qPN2o-56" source="ayBLaQX_q_n4pw1qPN2o-72" edge="1">
          <mxGeometry relative="1" as="geometry">
            <mxPoint x="300" y="200.09" as="targetPoint" />
          </mxGeometry>
        </mxCell>
        <mxCell id="ayBLaQX_q_n4pw1qPN2o-72" value="DPT_CRT: 11833: Stock returned" style="html=1;overflow=block;blockSpacing=1;whiteSpace=wrap;fontSize=16;spacing=9;strokeOpacity=100;rounded=1;absoluteArcSize=1;arcSize=9;strokeWidth=1;lucidId=3bL8yir.PB5-;labelBackgroundColor=none;" parent="ayBLaQX_q_n4pw1qPN2o-56" vertex="1">
          <mxGeometry x="560" y="70.09" width="200" height="60" as="geometry" />
        </mxCell>
        <mxCell id="ayBLaQX_q_n4pw1qPN2o-73" style="edgeStyle=orthogonalEdgeStyle;rounded=0;orthogonalLoop=1;jettySize=auto;html=1;exitX=0;exitY=0.5;exitDx=0;exitDy=0;dashed=1;dashPattern=8 8;strokeColor=#FF0000;" parent="ayBLaQX_q_n4pw1qPN2o-56" source="ayBLaQX_q_n4pw1qPN2o-74" edge="1">
          <mxGeometry relative="1" as="geometry">
            <mxPoint x="780" y="200" as="targetPoint" />
          </mxGeometry>
        </mxCell>
        <mxCell id="ayBLaQX_q_n4pw1qPN2o-74" value="DPT_CRT: 11833: Stock returned" style="html=1;overflow=block;blockSpacing=1;whiteSpace=wrap;fontSize=16;spacing=9;strokeOpacity=100;fillOpacity=100;rounded=1;absoluteArcSize=1;arcSize=9;fillColor=#ffffff;strokeWidth=1;lucidId=ueL8av5Dy-su;labelBackgroundColor=none;" parent="ayBLaQX_q_n4pw1qPN2o-56" vertex="1">
          <mxGeometry x="1040" y="70.09" width="200" height="60" as="geometry" />
        </mxCell>
        <mxCell id="ayBLaQX_q_n4pw1qPN2o-75" style="edgeStyle=orthogonalEdgeStyle;rounded=0;orthogonalLoop=1;jettySize=auto;html=1;exitX=0.5;exitY=1;exitDx=0;exitDy=0;dashed=1;dashPattern=8 8;strokeColor=#FF0000;" parent="ayBLaQX_q_n4pw1qPN2o-56" source="ayBLaQX_q_n4pw1qPN2o-76" edge="1">
          <mxGeometry relative="1" as="geometry">
            <mxPoint x="780" y="200" as="targetPoint" />
          </mxGeometry>
        </mxCell>
        <mxCell id="ayBLaQX_q_n4pw1qPN2o-76" value="DPT_SRA: 11835: Reject assigned stock" style="html=1;overflow=block;blockSpacing=1;whiteSpace=wrap;fontSize=16;spacing=9;strokeOpacity=100;fillOpacity=0;rounded=1;absoluteArcSize=1;arcSize=9;fillColor=#000000;strokeWidth=1;lucidId=SdL8HdBOTPbP;labelBackgroundColor=none;" parent="ayBLaQX_q_n4pw1qPN2o-56" vertex="1">
          <mxGeometry x="800" y="270" width="200" height="60" as="geometry" />
        </mxCell>
        <mxCell id="ayBLaQX_q_n4pw1qPN2o-77" value="DPT_SRG: Stock registration" style="html=1;overflow=block;blockSpacing=1;whiteSpace=wrap;fontSize=16;spacing=9;strokeOpacity=100;fillOpacity=0;rounded=1;absoluteArcSize=1;arcSize=9;fillColor=#000000;strokeWidth=1;lucidId=t-K8BA6zqQXJ;labelBackgroundColor=none;" parent="ayBLaQX_q_n4pw1qPN2o-56" vertex="1">
          <mxGeometry x="120" y="170" width="160" height="60" as="geometry" />
        </mxCell>
        <mxCell id="ayBLaQX_q_n4pw1qPN2o-78" value="" style="edgeStyle=orthogonalEdgeStyle;rounded=0;orthogonalLoop=1;jettySize=auto;html=1;fontSize=16;" parent="ayBLaQX_q_n4pw1qPN2o-56" source="ayBLaQX_q_n4pw1qPN2o-79" target="ayBLaQX_q_n4pw1qPN2o-77" edge="1">
          <mxGeometry relative="1" as="geometry" />
        </mxCell>
        <mxCell id="ayBLaQX_q_n4pw1qPN2o-79" value="&lt;font&gt;Begin&lt;/font&gt;" style="ellipse;whiteSpace=wrap;html=1;fontSize=16;" parent="ayBLaQX_q_n4pw1qPN2o-56" vertex="1">
          <mxGeometry x="20" y="180.09" width="60" height="40" as="geometry" />
        </mxCell>
        <mxCell id="ayBLaQX_q_n4pw1qPN2o-80" value="&lt;font&gt;End&lt;/font&gt;" style="ellipse;whiteSpace=wrap;html=1;fontSize=16;" parent="ayBLaQX_q_n4pw1qPN2o-56" vertex="1">
          <mxGeometry x="1280" y="180" width="60" height="40" as="geometry" />
        </mxCell>
        <mxCell id="ayBLaQX_q_n4pw1qPN2o-81" style="edgeStyle=orthogonalEdgeStyle;rounded=0;orthogonalLoop=1;jettySize=auto;html=1;exitX=0.5;exitY=0;exitDx=0;exitDy=0;entryX=0.5;entryY=1;entryDx=0;entryDy=0;dashed=1;dashPattern=8 8;strokeColor=#FF0000;" parent="ayBLaQX_q_n4pw1qPN2o-56" source="ayBLaQX_q_n4pw1qPN2o-60" target="ayBLaQX_q_n4pw1qPN2o-72" edge="1">
          <mxGeometry relative="1" as="geometry" />
        </mxCell>
        <mxCell id="ayBLaQX_q_n4pw1qPN2o-82" value="Other transactions" style="swimlane;whiteSpace=wrap;html=1;fontSize=16;startSize=30;" parent="ayBLaQX_q_n4pw1qPN2o-1" vertex="1">
          <mxGeometry x="-1680" y="250" width="440" height="370" as="geometry">
            <mxRectangle x="-1700" y="280" width="140" height="30" as="alternateBounds" />
          </mxGeometry>
        </mxCell>
        <mxCell id="ayBLaQX_q_n4pw1qPN2o-83" style="edgeStyle=orthogonalEdgeStyle;rounded=0;orthogonalLoop=1;jettySize=auto;html=1;exitX=1;exitY=0.5;exitDx=0;exitDy=0;entryX=0;entryY=0.5;entryDx=0;entryDy=0;fontSize=16;" parent="ayBLaQX_q_n4pw1qPN2o-82" source="ayBLaQX_q_n4pw1qPN2o-84" target="ayBLaQX_q_n4pw1qPN2o-85" edge="1">
          <mxGeometry relative="1" as="geometry" />
        </mxCell>
        <mxCell id="ayBLaQX_q_n4pw1qPN2o-84" value="DPT_EMK: Hold balance" style="rounded=1;whiteSpace=wrap;html=1;fontSize=16;" parent="ayBLaQX_q_n4pw1qPN2o-82" vertex="1">
          <mxGeometry x="20" y="50" width="180" height="60" as="geometry" />
        </mxCell>
        <mxCell id="ayBLaQX_q_n4pw1qPN2o-85" value="DPT_ERL: Release hold balance" style="rounded=1;whiteSpace=wrap;html=1;fontSize=16;" parent="ayBLaQX_q_n4pw1qPN2o-82" vertex="1">
          <mxGeometry x="240" y="50" width="180" height="60" as="geometry" />
        </mxCell>
        <mxCell id="ayBLaQX_q_n4pw1qPN2o-86" style="edgeStyle=orthogonalEdgeStyle;rounded=0;orthogonalLoop=1;jettySize=auto;html=1;exitX=1;exitY=0.5;exitDx=0;exitDy=0;entryX=0;entryY=0.5;entryDx=0;entryDy=0;fontSize=16;" parent="ayBLaQX_q_n4pw1qPN2o-82" source="ayBLaQX_q_n4pw1qPN2o-87" target="ayBLaQX_q_n4pw1qPN2o-88" edge="1">
          <mxGeometry relative="1" as="geometry" />
        </mxCell>
        <mxCell id="ayBLaQX_q_n4pw1qPN2o-87" value="DPT_BLK: Block account" style="rounded=1;whiteSpace=wrap;html=1;fontSize=16;" parent="ayBLaQX_q_n4pw1qPN2o-82" vertex="1">
          <mxGeometry x="20" y="130" width="180" height="60" as="geometry" />
        </mxCell>
        <mxCell id="ayBLaQX_q_n4pw1qPN2o-88" value="DPT_RLS: Release block account" style="rounded=1;whiteSpace=wrap;html=1;fontSize=16;" parent="ayBLaQX_q_n4pw1qPN2o-82" vertex="1">
          <mxGeometry x="240" y="130" width="180" height="60" as="geometry" />
        </mxCell>
        <mxCell id="ayBLaQX_q_n4pw1qPN2o-89" value="DPT_CAS: Change account status" style="rounded=1;whiteSpace=wrap;html=1;fontSize=16;" parent="ayBLaQX_q_n4pw1qPN2o-82" vertex="1">
          <mxGeometry x="20" y="210" width="180" height="60" as="geometry" />
        </mxCell>
        <mxCell id="ayBLaQX_q_n4pw1qPN2o-90" value="DPT_HIS: Transaction history inquiry" style="rounded=1;whiteSpace=wrap;html=1;fontSize=16;" parent="ayBLaQX_q_n4pw1qPN2o-82" vertex="1">
          <mxGeometry x="240" y="290" width="180" height="60" as="geometry" />
        </mxCell>
        <mxCell id="ayBLaQX_q_n4pw1qPN2o-91" value="DPT_FOC: Fee collection by cash" style="rounded=1;whiteSpace=wrap;html=1;fontSize=16;" parent="ayBLaQX_q_n4pw1qPN2o-82" vertex="1">
          <mxGeometry x="240" y="210" width="180" height="60" as="geometry" />
        </mxCell>
        <mxCell id="n7Vw5V7HTIGYCYzSBsou-0" value="DPT_FEE: 1185: Fee collection by transfer" style="rounded=1;whiteSpace=wrap;html=1;fontSize=16;" vertex="1" parent="ayBLaQX_q_n4pw1qPN2o-82">
          <mxGeometry x="20" y="290" width="180" height="60" as="geometry" />
        </mxCell>
        <mxCell id="ayBLaQX_q_n4pw1qPN2o-92" value="Other passbook transactions" style="swimlane;whiteSpace=wrap;html=1;fontSize=16;startSize=30;" parent="ayBLaQX_q_n4pw1qPN2o-1" vertex="1">
          <mxGeometry x="-1680" y="650" width="440" height="110" as="geometry" />
        </mxCell>
        <mxCell id="ayBLaQX_q_n4pw1qPN2o-93" style="edgeStyle=orthogonalEdgeStyle;rounded=0;orthogonalLoop=1;jettySize=auto;html=1;exitX=1;exitY=0.5;exitDx=0;exitDy=0;entryX=0;entryY=0.5;entryDx=0;entryDy=0;" parent="ayBLaQX_q_n4pw1qPN2o-92" edge="1">
          <mxGeometry relative="1" as="geometry">
            <mxPoint x="170" y="111.13999999999987" as="sourcePoint" />
          </mxGeometry>
        </mxCell>
        <mxCell id="ayBLaQX_q_n4pw1qPN2o-94" style="edgeStyle=orthogonalEdgeStyle;rounded=0;orthogonalLoop=1;jettySize=auto;html=1;exitX=1;exitY=0.5;exitDx=0;exitDy=0;entryX=0;entryY=0.5;entryDx=0;entryDy=0;fontSize=16;" parent="ayBLaQX_q_n4pw1qPN2o-92" source="ayBLaQX_q_n4pw1qPN2o-95" edge="1">
          <mxGeometry relative="1" as="geometry">
            <mxPoint x="240" y="80" as="targetPoint" />
          </mxGeometry>
        </mxCell>
        <mxCell id="ayBLaQX_q_n4pw1qPN2o-97" value="DPT_CTS: Change status of stock" style="rounded=1;whiteSpace=wrap;html=1;fontSize=16;" parent="ayBLaQX_q_n4pw1qPN2o-92" vertex="1">
          <mxGeometry x="20" y="50" width="400" height="40" as="geometry" />
        </mxCell>
        <mxCell id="ayBLaQX_q_n4pw1qPN2o-100" style="edgeStyle=orthogonalEdgeStyle;rounded=0;orthogonalLoop=1;jettySize=auto;html=1;entryX=0;entryY=0.5;entryDx=0;entryDy=0;fontSize=16;" parent="ayBLaQX_q_n4pw1qPN2o-1" source="ayBLaQX_q_n4pw1qPN2o-101" target="ayBLaQX_q_n4pw1qPN2o-105" edge="1">
          <mxGeometry relative="1" as="geometry" />
        </mxCell>
        <mxCell id="ayBLaQX_q_n4pw1qPN2o-101" value="Close &lt;span style=&quot;background-color: transparent; color: light-dark(rgb(0, 0, 0), rgb(255, 255, 255));&quot;&gt;transactions&lt;/span&gt;" style="swimlane;whiteSpace=wrap;html=1;startSize=30;fontSize=16;" parent="ayBLaQX_q_n4pw1qPN2o-1" vertex="1">
          <mxGeometry x="-1680" y="790" width="440" height="230" as="geometry" />
        </mxCell>
        <mxCell id="ayBLaQX_q_n4pw1qPN2o-102" value="DPT_CLS: Close deposit account" style="rounded=1;whiteSpace=wrap;html=1;fontSize=16;" parent="ayBLaQX_q_n4pw1qPN2o-101" vertex="1">
          <mxGeometry x="20" y="50" width="400" height="40" as="geometry" />
        </mxCell>
        <mxCell id="ayBLaQX_q_n4pw1qPN2o-103" value="DPT_DLS: Close deposit account by deposit" style="rounded=1;whiteSpace=wrap;html=1;fontSize=16;" parent="ayBLaQX_q_n4pw1qPN2o-101" vertex="1">
          <mxGeometry x="20" y="110" width="400" height="40" as="geometry" />
        </mxCell>
        <mxCell id="ayBLaQX_q_n4pw1qPN2o-104" value="DPT_MLS:Close deposit account by miscellaneous" style="rounded=1;whiteSpace=wrap;html=1;fontSize=16;" parent="ayBLaQX_q_n4pw1qPN2o-101" vertex="1">
          <mxGeometry x="20" y="170" width="400" height="40" as="geometry" />
        </mxCell>
        <mxCell id="ayBLaQX_q_n4pw1qPN2o-105" value="&lt;font&gt;End&lt;/font&gt;" style="ellipse;whiteSpace=wrap;html=1;fontSize=16;" parent="ayBLaQX_q_n4pw1qPN2o-1" vertex="1">
          <mxGeometry x="-1200" y="885" width="60" height="40" as="geometry" />
        </mxCell>
        <mxCell id="ayBLaQX_q_n4pw1qPN2o-106" style="edgeStyle=orthogonalEdgeStyle;rounded=0;orthogonalLoop=1;jettySize=auto;html=1;exitX=1;exitY=0.5;exitDx=0;exitDy=0;entryX=0.009;entryY=0.5;entryDx=0;entryDy=0;entryPerimeter=0;" parent="ayBLaQX_q_n4pw1qPN2o-1" source="ayBLaQX_q_n4pw1qPN2o-2" target="ayBLaQX_q_n4pw1qPN2o-5" edge="1">
          <mxGeometry relative="1" as="geometry">
            <mxPoint x="-2960" y="96" as="targetPoint" />
          </mxGeometry>
        </mxCell>
        <mxCell id="ayBLaQX_q_n4pw1qPN2o-107" value="" style="endArrow=classic;html=1;rounded=0;exitX=0.989;exitY=0.495;exitDx=0;exitDy=0;exitPerimeter=0;entryX=0;entryY=0.5;entryDx=0;entryDy=0;" parent="ayBLaQX_q_n4pw1qPN2o-1" source="ayBLaQX_q_n4pw1qPN2o-17" target="ayBLaQX_q_n4pw1qPN2o-14" edge="1">
          <mxGeometry width="50" height="50" relative="1" as="geometry">
            <mxPoint x="-2080" y="90" as="sourcePoint" />
            <mxPoint x="-2030" y="40" as="targetPoint" />
          </mxGeometry>
        </mxCell>
        <mxCell id="ayBLaQX_q_n4pw1qPN2o-108" value="&lt;b&gt;YES&lt;/b&gt;" style="edgeLabel;html=1;align=center;verticalAlign=middle;resizable=0;points=[];fontSize=16;" parent="ayBLaQX_q_n4pw1qPN2o-107" vertex="1" connectable="0">
          <mxGeometry x="-0.0588" y="-1" relative="1" as="geometry">
            <mxPoint x="-3" y="-2" as="offset" />
          </mxGeometry>
        </mxCell>
      </root>
    </mxGraphModel>
  </diagram>
  <diagram name="Normal Fixed Deposit" id="5imGrXV44OqWRsuSiia9">
    <mxGraphModel dx="4960" dy="1957" grid="1" gridSize="10" guides="1" tooltips="1" connect="1" arrows="1" fold="1" page="0" pageScale="1" pageWidth="1169" pageHeight="1654" background="none" math="0" shadow="0">
      <root>
        <mxCell id="OAAgQT4a9lYhhXLHfehP-0" />
        <mxCell id="OAAgQT4a9lYhhXLHfehP-1" parent="OAAgQT4a9lYhhXLHfehP-0" />
        <mxCell id="OAAgQT4a9lYhhXLHfehP-2" value="DPT_OPN: Open new deposit account" style="html=1;overflow=block;blockSpacing=1;whiteSpace=wrap;fontSize=16;spacing=9;strokeOpacity=100;fillOpacity=0;rounded=1;absoluteArcSize=1;arcSize=9;fillColor=#000000;strokeWidth=1;lucidId=C0K84pjTFIGe;labelBackgroundColor=none;" vertex="1" parent="OAAgQT4a9lYhhXLHfehP-1">
          <mxGeometry x="-3200" y="64" width="200" height="60" as="geometry" />
        </mxCell>
        <mxCell id="OAAgQT4a9lYhhXLHfehP-3" style="edgeStyle=orthogonalEdgeStyle;rounded=0;orthogonalLoop=1;jettySize=auto;html=1;exitX=0.5;exitY=0;exitDx=0;exitDy=0;entryX=0.5;entryY=1;entryDx=0;entryDy=0;" edge="1" parent="OAAgQT4a9lYhhXLHfehP-1" source="OAAgQT4a9lYhhXLHfehP-5" target="OAAgQT4a9lYhhXLHfehP-6">
          <mxGeometry relative="1" as="geometry" />
        </mxCell>
        <mxCell id="OAAgQT4a9lYhhXLHfehP-4" value="&lt;b&gt;&lt;font style=&quot;font-size: 16px;&quot;&gt;NO&lt;/font&gt;&lt;/b&gt;" style="edgeLabel;html=1;align=center;verticalAlign=middle;resizable=0;points=[];" vertex="1" connectable="0" parent="OAAgQT4a9lYhhXLHfehP-3">
          <mxGeometry x="-0.2071" relative="1" as="geometry">
            <mxPoint y="-4" as="offset" />
          </mxGeometry>
        </mxCell>
        <mxCell id="OAAgQT4a9lYhhXLHfehP-5" value="Approve deposit account?" style="html=1;overflow=block;blockSpacing=1;whiteSpace=wrap;rhombus;fontSize=16;spacing=9;strokeOpacity=100;fillOpacity=0;rounded=1;absoluteArcSize=1;arcSize=9;fillColor=#000000;strokeWidth=1;lucidId=C0K8-goSnGRA;labelBackgroundColor=none;" vertex="1" parent="OAAgQT4a9lYhhXLHfehP-1">
          <mxGeometry x="-2960" y="54" width="200" height="80" as="geometry" />
        </mxCell>
        <mxCell id="OAAgQT4a9lYhhXLHfehP-6" value="DPT_REJ: Reject deposit account" style="html=1;overflow=block;blockSpacing=1;whiteSpace=wrap;fontSize=16;spacing=9;strokeOpacity=100;rounded=1;absoluteArcSize=1;arcSize=9;strokeWidth=1;lucidId=E1K8_GnM5wsY;labelBackgroundColor=none;fillColor=none;" vertex="1" parent="OAAgQT4a9lYhhXLHfehP-1">
          <mxGeometry x="-2940" y="-66" width="160" height="60" as="geometry" />
        </mxCell>
        <mxCell id="OAAgQT4a9lYhhXLHfehP-7" value="" style="html=1;jettySize=18;whiteSpace=wrap;fontSize=16;fontColor=#333333;fontStyle=1;strokeColor=#3a414a;strokeOpacity=100;strokeWidth=0.8;rounded=1;arcSize=12;edgeStyle=orthogonalEdgeStyle;jumpStyle=arc;startArrow=none;endArrow=block;endFill=1;exitX=0.988;exitY=0.5;exitPerimeter=0;entryX=-0.006;entryY=0.5;entryPerimeter=0;lucidId=O2K8zMyo41Df;labelBackgroundColor=none;" edge="1" parent="OAAgQT4a9lYhhXLHfehP-1" source="OAAgQT4a9lYhhXLHfehP-5" target="OAAgQT4a9lYhhXLHfehP-9">
          <mxGeometry width="100" height="100" relative="1" as="geometry">
            <Array as="points" />
          </mxGeometry>
        </mxCell>
        <mxCell id="OAAgQT4a9lYhhXLHfehP-8" value="&lt;b&gt;&lt;font style=&quot;font-size: 16px;&quot;&gt;YES&lt;/font&gt;&lt;/b&gt;" style="edgeLabel;html=1;align=center;verticalAlign=middle;resizable=0;points=[];" vertex="1" connectable="0" parent="OAAgQT4a9lYhhXLHfehP-7">
          <mxGeometry x="0.1555" relative="1" as="geometry">
            <mxPoint x="-9" as="offset" />
          </mxGeometry>
        </mxCell>
        <mxCell id="zq2qRMITxAVNM6e_dIg5-0" style="edgeStyle=orthogonalEdgeStyle;rounded=0;orthogonalLoop=1;jettySize=auto;html=1;exitX=0.5;exitY=1;exitDx=0;exitDy=0;entryX=0.5;entryY=1;entryDx=0;entryDy=0;strokeColor=#FF0000;dashed=1;dashPattern=8 8;" edge="1" parent="OAAgQT4a9lYhhXLHfehP-1" source="OAAgQT4a9lYhhXLHfehP-9" target="OAAgQT4a9lYhhXLHfehP-98">
          <mxGeometry relative="1" as="geometry" />
        </mxCell>
        <mxCell id="OAAgQT4a9lYhhXLHfehP-9" value="DPT_APR: Approve deposit account" style="html=1;overflow=block;blockSpacing=1;whiteSpace=wrap;fontSize=16;spacing=9;strokeOpacity=100;rounded=1;absoluteArcSize=1;arcSize=9;strokeWidth=1;lucidId=Q2K8Qx9mygk0;labelBackgroundColor=none;fillColor=none;" vertex="1" parent="OAAgQT4a9lYhhXLHfehP-1">
          <mxGeometry x="-2700" y="64" width="160" height="60" as="geometry" />
        </mxCell>
        <mxCell id="OAAgQT4a9lYhhXLHfehP-10" style="edgeStyle=orthogonalEdgeStyle;rounded=0;orthogonalLoop=1;jettySize=auto;html=1;exitX=0.5;exitY=1;exitDx=0;exitDy=0;entryX=0;entryY=0.5;entryDx=0;entryDy=0;fontSize=16;" edge="1" parent="OAAgQT4a9lYhhXLHfehP-1" source="OAAgQT4a9lYhhXLHfehP-14" target="OAAgQT4a9lYhhXLHfehP-82">
          <mxGeometry relative="1" as="geometry" />
        </mxCell>
        <mxCell id="OAAgQT4a9lYhhXLHfehP-11" style="edgeStyle=orthogonalEdgeStyle;rounded=0;orthogonalLoop=1;jettySize=auto;html=1;exitX=0.5;exitY=1;exitDx=0;exitDy=0;entryX=0;entryY=0.5;entryDx=0;entryDy=0;fontSize=16;" edge="1" parent="OAAgQT4a9lYhhXLHfehP-1" source="OAAgQT4a9lYhhXLHfehP-14" target="OAAgQT4a9lYhhXLHfehP-93">
          <mxGeometry relative="1" as="geometry" />
        </mxCell>
        <mxCell id="OAAgQT4a9lYhhXLHfehP-12" style="edgeStyle=orthogonalEdgeStyle;rounded=0;orthogonalLoop=1;jettySize=auto;html=1;exitX=0.5;exitY=1;exitDx=0;exitDy=0;entryX=0;entryY=0.5;entryDx=0;entryDy=0;fontSize=16;" edge="1" parent="OAAgQT4a9lYhhXLHfehP-1" source="OAAgQT4a9lYhhXLHfehP-14" target="OAAgQT4a9lYhhXLHfehP-98">
          <mxGeometry relative="1" as="geometry" />
        </mxCell>
        <mxCell id="OAAgQT4a9lYhhXLHfehP-13" value="" style="edgeStyle=orthogonalEdgeStyle;rounded=0;orthogonalLoop=1;jettySize=auto;html=1;entryX=0;entryY=0.5;entryDx=0;entryDy=0;" edge="1" parent="OAAgQT4a9lYhhXLHfehP-1" source="OAAgQT4a9lYhhXLHfehP-14" target="OAAgQT4a9lYhhXLHfehP-34">
          <mxGeometry relative="1" as="geometry" />
        </mxCell>
        <mxCell id="OAAgQT4a9lYhhXLHfehP-14" value="DPT_FBI: 11804: Fixed deposit book issue" style="html=1;overflow=block;blockSpacing=1;whiteSpace=wrap;fontSize=16;spacing=9;strokeOpacity=100;rounded=1;absoluteArcSize=1;arcSize=9;strokeWidth=1;lucidId=A4K8zdcVxU0g;labelBackgroundColor=none;" vertex="1" parent="OAAgQT4a9lYhhXLHfehP-1">
          <mxGeometry x="-1940" y="65" width="220" height="60" as="geometry" />
        </mxCell>
        <mxCell id="OAAgQT4a9lYhhXLHfehP-15" value="" style="edgeStyle=orthogonalEdgeStyle;rounded=0;orthogonalLoop=1;jettySize=auto;html=1;entryX=0.5;entryY=1;entryDx=0;entryDy=0;fontSize=16;" edge="1" parent="OAAgQT4a9lYhhXLHfehP-1" source="OAAgQT4a9lYhhXLHfehP-17" target="OAAgQT4a9lYhhXLHfehP-18">
          <mxGeometry relative="1" as="geometry">
            <mxPoint x="-2049" y="-43" as="targetPoint" />
          </mxGeometry>
        </mxCell>
        <mxCell id="OAAgQT4a9lYhhXLHfehP-16" value="&lt;b&gt;&lt;font style=&quot;font-size: 16px;&quot;&gt;NO&lt;/font&gt;&lt;/b&gt;" style="edgeLabel;html=1;align=center;verticalAlign=middle;resizable=0;points=[];" vertex="1" connectable="0" parent="OAAgQT4a9lYhhXLHfehP-15">
          <mxGeometry x="0.068" y="1" relative="1" as="geometry">
            <mxPoint as="offset" />
          </mxGeometry>
        </mxCell>
        <mxCell id="OAAgQT4a9lYhhXLHfehP-17" value="&lt;font style=&quot;color: rgb(0, 0, 0);&quot;&gt;Do you have&amp;nbsp;&lt;/font&gt;&lt;div&gt;&lt;font style=&quot;color: rgb(0, 0, 0);&quot;&gt;&quot;Passbook&amp;nbsp;&lt;span style=&quot;background-color: transparent;&quot;&gt;&lt;font&gt;for &lt;/font&gt;fixed deposit&lt;font&gt;&quot;?&lt;/font&gt;&lt;/span&gt;&lt;/font&gt;&lt;/div&gt;" style="html=1;overflow=block;blockSpacing=1;whiteSpace=wrap;rhombus;fontSize=16;spacing=9;strokeOpacity=100;fillOpacity=0;rounded=1;absoluteArcSize=1;arcSize=9;fillColor=#000000;strokeWidth=1;lucidId=m6K8SB-cduvH;labelBackgroundColor=none;" vertex="1" parent="OAAgQT4a9lYhhXLHfehP-1">
          <mxGeometry x="-2220" y="50" width="220" height="90" as="geometry" />
        </mxCell>
        <mxCell id="OAAgQT4a9lYhhXLHfehP-18" value="Is the user in HO?" style="html=1;overflow=block;blockSpacing=1;whiteSpace=wrap;rhombus;fontSize=16;spacing=9;strokeOpacity=100;fillOpacity=0;rounded=1;absoluteArcSize=1;arcSize=9;fillColor=#000000;strokeWidth=1;lucidId=O8K8_05I5hbr;labelBackgroundColor=none;" vertex="1" parent="OAAgQT4a9lYhhXLHfehP-1">
          <mxGeometry x="-2220" y="-310" width="220" height="90" as="geometry" />
        </mxCell>
        <mxCell id="OAAgQT4a9lYhhXLHfehP-19" value="" style="html=1;jettySize=18;whiteSpace=wrap;fontSize=16;fontColor=#333333;fontStyle=1;strokeColor=#3a414a;strokeOpacity=100;strokeWidth=1;rounded=1;arcSize=12;edgeStyle=orthogonalEdgeStyle;startArrow=none;endArrow=block;endFill=1;exitX=0.5;exitY=0.002;exitPerimeter=0;lucidId=t-K8pr-iaynm;labelBackgroundColor=none;entryX=0;entryY=0.5;entryDx=0;entryDy=0;" edge="1" parent="OAAgQT4a9lYhhXLHfehP-1" source="OAAgQT4a9lYhhXLHfehP-18" target="OAAgQT4a9lYhhXLHfehP-56">
          <mxGeometry width="100" height="100" relative="1" as="geometry">
            <Array as="points" />
            <mxPoint x="-2100" y="-730" as="targetPoint" />
          </mxGeometry>
        </mxCell>
        <mxCell id="OAAgQT4a9lYhhXLHfehP-20" value="&lt;b&gt;&lt;font style=&quot;font-size: 16px;&quot;&gt;YES&lt;/font&gt;&lt;/b&gt;" style="edgeLabel;html=1;align=center;verticalAlign=middle;resizable=0;points=[];" vertex="1" connectable="0" parent="OAAgQT4a9lYhhXLHfehP-19">
          <mxGeometry x="-0.2648" y="-1" relative="1" as="geometry">
            <mxPoint y="1" as="offset" />
          </mxGeometry>
        </mxCell>
        <mxCell id="OAAgQT4a9lYhhXLHfehP-21" value="" style="html=1;jettySize=18;whiteSpace=wrap;fontSize=16;fontColor=#333333;fontStyle=1;strokeColor=#3a414a;strokeOpacity=100;strokeWidth=1;rounded=1;arcSize=12;edgeStyle=orthogonalEdgeStyle;startArrow=none;endArrow=block;endFill=1;exitX=0.989;exitY=0.5;exitPerimeter=0;lucidId=diL8J1pEU5sI;labelBackgroundColor=none;entryX=0;entryY=0.5;entryDx=0;entryDy=0;" edge="1" parent="OAAgQT4a9lYhhXLHfehP-1" source="OAAgQT4a9lYhhXLHfehP-18" target="OAAgQT4a9lYhhXLHfehP-39">
          <mxGeometry width="100" height="100" relative="1" as="geometry">
            <Array as="points" />
            <mxPoint x="-1890" y="-275" as="targetPoint" />
          </mxGeometry>
        </mxCell>
        <mxCell id="OAAgQT4a9lYhhXLHfehP-22" value="&lt;b&gt;&lt;font style=&quot;font-size: 16px;&quot;&gt;NO&lt;/font&gt;&lt;/b&gt;" style="edgeLabel;html=1;align=center;verticalAlign=middle;resizable=0;points=[];" vertex="1" connectable="0" parent="OAAgQT4a9lYhhXLHfehP-21">
          <mxGeometry x="-0.1742" y="1" relative="1" as="geometry">
            <mxPoint x="2" as="offset" />
          </mxGeometry>
        </mxCell>
        <mxCell id="OAAgQT4a9lYhhXLHfehP-23" value="" style="html=1;jettySize=18;whiteSpace=wrap;fontSize=16;strokeColor=#3a414a;strokeOpacity=100;strokeWidth=0.8;rounded=1;arcSize=12;edgeStyle=orthogonalEdgeStyle;startArrow=none;endArrow=block;endFill=1;exitX=0.5;exitY=-0.01;exitPerimeter=0;entryX=0.5;entryY=1.015;entryPerimeter=0;lucidId=2zL8Nh6T.o6e;labelBackgroundColor=none;" edge="1" parent="OAAgQT4a9lYhhXLHfehP-1" source="OAAgQT4a9lYhhXLHfehP-6">
          <mxGeometry width="100" height="100" relative="1" as="geometry">
            <Array as="points" />
            <mxPoint x="-2860" y="-105.40000000000009" as="targetPoint" />
          </mxGeometry>
        </mxCell>
        <mxCell id="OAAgQT4a9lYhhXLHfehP-24" value="End" style="html=1;overflow=block;blockSpacing=1;whiteSpace=wrap;ellipse;fontSize=16;spacing=9;strokeOpacity=100;rounded=1;absoluteArcSize=1;arcSize=9;strokeWidth=NaN;lucidId=2zL8Q2and7EK;labelBackgroundColor=none;" vertex="1" parent="OAAgQT4a9lYhhXLHfehP-1">
          <mxGeometry x="-2890" y="-120" width="60" height="40" as="geometry" />
        </mxCell>
        <mxCell id="OAAgQT4a9lYhhXLHfehP-25" value="" style="html=1;jettySize=18;whiteSpace=wrap;fontSize=13;strokeColor=#e81313;strokeOpacity=100;dashed=1;fixDash=1;dashPattern=8 8;strokeWidth=0.8;rounded=1;arcSize=12;edgeStyle=orthogonalEdgeStyle;startArrow=none;endArrow=block;endFill=1;exitX=0.5;exitY=1.008;exitPerimeter=0;entryX=0.5;entryY=-0.008;entryPerimeter=0;lucidId=LBL8KxfsIMmQ;labelBackgroundColor=none;" edge="1" parent="OAAgQT4a9lYhhXLHfehP-1">
          <mxGeometry width="100" height="100" relative="1" as="geometry">
            <Array as="points" />
            <mxPoint x="-1502.5" y="-228.2639999999999" as="sourcePoint" />
          </mxGeometry>
        </mxCell>
        <mxCell id="OAAgQT4a9lYhhXLHfehP-26" value="" style="edgeStyle=orthogonalEdgeStyle;rounded=0;orthogonalLoop=1;jettySize=auto;html=1;fontSize=16;" edge="1" parent="OAAgQT4a9lYhhXLHfehP-1" source="OAAgQT4a9lYhhXLHfehP-27" target="OAAgQT4a9lYhhXLHfehP-2">
          <mxGeometry relative="1" as="geometry" />
        </mxCell>
        <mxCell id="OAAgQT4a9lYhhXLHfehP-27" value="&lt;font&gt;Begin&lt;/font&gt;" style="ellipse;whiteSpace=wrap;html=1;fontSize=16;" vertex="1" parent="OAAgQT4a9lYhhXLHfehP-1">
          <mxGeometry x="-3300" y="74" width="60" height="40" as="geometry" />
        </mxCell>
        <mxCell id="OAAgQT4a9lYhhXLHfehP-28" value="Deposit transactions" style="swimlane;whiteSpace=wrap;html=1;fontSize=16;startSize=30;" vertex="1" parent="OAAgQT4a9lYhhXLHfehP-1">
          <mxGeometry x="-2500" y="-51.5" width="240" height="291.5" as="geometry">
            <mxRectangle x="-2470" y="-53" width="190" height="30" as="alternateBounds" />
          </mxGeometry>
        </mxCell>
        <mxCell id="OAAgQT4a9lYhhXLHfehP-29" value="DPT_CDP: Cash deposit" style="html=1;overflow=block;blockSpacing=1;whiteSpace=wrap;fontSize=16;spacing=9;strokeOpacity=100;rounded=1;absoluteArcSize=1;arcSize=9;strokeWidth=1;lucidId=Bm08SP1lj_z.;labelBackgroundColor=none;" vertex="1" parent="OAAgQT4a9lYhhXLHfehP-28">
          <mxGeometry x="20" y="51.5" width="200" height="40" as="geometry" />
        </mxCell>
        <mxCell id="OAAgQT4a9lYhhXLHfehP-30" value="DPT_TRF: Transfer from deposit account to deposit account" style="html=1;overflow=block;blockSpacing=1;whiteSpace=wrap;fontSize=16;spacing=9;strokeOpacity=100;rounded=1;absoluteArcSize=1;arcSize=9;strokeWidth=1;lucidId=zyL8M3RWzBDG;labelBackgroundColor=none;" vertex="1" parent="OAAgQT4a9lYhhXLHfehP-28">
          <mxGeometry x="20" y="111.5" width="200" height="80" as="geometry" />
        </mxCell>
        <mxCell id="OAAgQT4a9lYhhXLHfehP-31" value="DPT_MDP: Miscellaneous deposit" style="html=1;overflow=block;blockSpacing=1;whiteSpace=wrap;fontSize=16;spacing=9;strokeOpacity=100;rounded=1;absoluteArcSize=1;arcSize=9;strokeWidth=1;lucidId=bn08uZzj-w-n;labelBackgroundColor=none;" vertex="1" parent="OAAgQT4a9lYhhXLHfehP-28">
          <mxGeometry x="20" y="211.5" width="200" height="60" as="geometry" />
        </mxCell>
        <mxCell id="OAAgQT4a9lYhhXLHfehP-32" value="" style="endArrow=classic;html=1;rounded=0;exitX=1;exitY=0.5;exitDx=0;exitDy=0;fontSize=16;entryX=0.024;entryY=0.5;entryDx=0;entryDy=0;entryPerimeter=0;" edge="1" parent="OAAgQT4a9lYhhXLHfehP-1" source="OAAgQT4a9lYhhXLHfehP-28" target="OAAgQT4a9lYhhXLHfehP-17">
          <mxGeometry width="50" height="50" relative="1" as="geometry">
            <mxPoint x="-2375" y="166" as="sourcePoint" />
            <mxPoint x="-2220" y="95" as="targetPoint" />
          </mxGeometry>
        </mxCell>
        <mxCell id="OAAgQT4a9lYhhXLHfehP-33" value="" style="endArrow=classic;html=1;rounded=0;exitX=1;exitY=0.5;exitDx=0;exitDy=0;entryX=0;entryY=0.5;entryDx=0;entryDy=0;fontSize=16;" edge="1" parent="OAAgQT4a9lYhhXLHfehP-1" source="OAAgQT4a9lYhhXLHfehP-9" target="OAAgQT4a9lYhhXLHfehP-28">
          <mxGeometry width="50" height="50" relative="1" as="geometry">
            <mxPoint x="-2370" y="64" as="sourcePoint" />
            <mxPoint x="-2320" y="14" as="targetPoint" />
          </mxGeometry>
        </mxCell>
        <mxCell id="OAAgQT4a9lYhhXLHfehP-34" value="Withdrawal transactions" style="swimlane;whiteSpace=wrap;html=1;fontSize=16;startSize=30;" vertex="1" parent="OAAgQT4a9lYhhXLHfehP-1">
          <mxGeometry x="-1680" y="-30" width="440" height="250" as="geometry">
            <mxRectangle x="-1700" y="-29.75" width="190" height="30" as="alternateBounds" />
          </mxGeometry>
        </mxCell>
        <mxCell id="OAAgQT4a9lYhhXLHfehP-35" value="DPT_CWR: 1120: Cash withdrawal" style="html=1;overflow=block;blockSpacing=1;whiteSpace=wrap;fontSize=16;spacing=9;strokeOpacity=100;rounded=1;absoluteArcSize=1;arcSize=9;strokeWidth=1;lucidId=Bm08SP1lj_z.;labelBackgroundColor=none;" vertex="1" parent="OAAgQT4a9lYhhXLHfehP-34">
          <mxGeometry x="20" y="50" width="400" height="40" as="geometry" />
        </mxCell>
        <mxCell id="OAAgQT4a9lYhhXLHfehP-36" value="DPT_MWR: 1122: Miscellaneous withdrawal" style="html=1;overflow=block;blockSpacing=1;whiteSpace=wrap;fontSize=16;spacing=9;strokeOpacity=100;rounded=1;absoluteArcSize=1;arcSize=9;strokeWidth=1;lucidId=zyL8M3RWzBDG;labelBackgroundColor=none;" vertex="1" parent="OAAgQT4a9lYhhXLHfehP-34">
          <mxGeometry x="20" y="110" width="400" height="40" as="geometry" />
        </mxCell>
        <mxCell id="OAAgQT4a9lYhhXLHfehP-37" value="DPT_TRF: Transfer from deposit account to deposit account" style="html=1;overflow=block;blockSpacing=1;whiteSpace=wrap;fontSize=16;spacing=9;strokeOpacity=100;rounded=1;absoluteArcSize=1;arcSize=9;strokeWidth=1;lucidId=bn08uZzj-w-n;labelBackgroundColor=none;" vertex="1" parent="OAAgQT4a9lYhhXLHfehP-34">
          <mxGeometry x="20" y="170" width="400" height="60" as="geometry" />
        </mxCell>
        <mxCell id="OAAgQT4a9lYhhXLHfehP-38" style="edgeStyle=orthogonalEdgeStyle;rounded=0;orthogonalLoop=1;jettySize=auto;html=1;exitX=1;exitY=0.5;exitDx=0;exitDy=0;entryX=0.5;entryY=0;entryDx=0;entryDy=0;fontSize=16;" edge="1" parent="OAAgQT4a9lYhhXLHfehP-1" source="OAAgQT4a9lYhhXLHfehP-39" target="OAAgQT4a9lYhhXLHfehP-14">
          <mxGeometry relative="1" as="geometry">
            <mxPoint x="-1040" y="-265" as="sourcePoint" />
            <mxPoint x="-1820" y="80" as="targetPoint" />
            <Array as="points">
              <mxPoint x="-1030" y="-265" />
              <mxPoint x="-1030" y="-60" />
              <mxPoint x="-1830" y="-60" />
            </Array>
          </mxGeometry>
        </mxCell>
        <mxCell id="OAAgQT4a9lYhhXLHfehP-39" value="Registration Stock at Branch" style="swimlane;whiteSpace=wrap;html=1;fontSize=16;startSize=30;" vertex="1" parent="OAAgQT4a9lYhhXLHfehP-1">
          <mxGeometry x="-1940" y="-440" width="880" height="350" as="geometry">
            <mxRectangle x="-1890" y="-500" width="190" height="30" as="alternateBounds" />
          </mxGeometry>
        </mxCell>
        <mxCell id="OAAgQT4a9lYhhXLHfehP-40" value="" style="edgeStyle=orthogonalEdgeStyle;rounded=0;orthogonalLoop=1;jettySize=auto;html=1;fontSize=16;" edge="1" parent="OAAgQT4a9lYhhXLHfehP-39" source="OAAgQT4a9lYhhXLHfehP-41" target="OAAgQT4a9lYhhXLHfehP-42">
          <mxGeometry relative="1" as="geometry" />
        </mxCell>
        <mxCell id="OAAgQT4a9lYhhXLHfehP-41" value="&lt;font&gt;Begin&lt;/font&gt;" style="ellipse;whiteSpace=wrap;html=1;fontSize=16;" vertex="1" parent="OAAgQT4a9lYhhXLHfehP-39">
          <mxGeometry x="20" y="180" width="60" height="40" as="geometry" />
        </mxCell>
        <mxCell id="OAAgQT4a9lYhhXLHfehP-42" value="DPT_SRG: Stock registration" style="html=1;overflow=block;blockSpacing=1;whiteSpace=wrap;fontSize=16;spacing=9;strokeOpacity=100;fillOpacity=0;rounded=1;absoluteArcSize=1;arcSize=9;fillColor=#000000;strokeWidth=1;lucidId=diL8n7n7nvlU;labelBackgroundColor=none;" vertex="1" parent="OAAgQT4a9lYhhXLHfehP-39">
          <mxGeometry x="120" y="170" width="160" height="60" as="geometry" />
        </mxCell>
        <mxCell id="OAAgQT4a9lYhhXLHfehP-43" style="edgeStyle=orthogonalEdgeStyle;rounded=0;orthogonalLoop=1;jettySize=auto;html=1;exitX=0.5;exitY=1;exitDx=0;exitDy=0;entryX=0.5;entryY=0;entryDx=0;entryDy=0;dashed=1;dashPattern=8 8;strokeColor=#FF0000;fontSize=16;" edge="1" parent="OAAgQT4a9lYhhXLHfehP-39" source="OAAgQT4a9lYhhXLHfehP-44" target="OAAgQT4a9lYhhXLHfehP-50">
          <mxGeometry relative="1" as="geometry" />
        </mxCell>
        <mxCell id="OAAgQT4a9lYhhXLHfehP-44" value="DPT_SAT: Stock assign to Staff" style="html=1;overflow=block;blockSpacing=1;whiteSpace=wrap;fontSize=16;spacing=9;strokeOpacity=100;fillOpacity=0;rounded=1;absoluteArcSize=1;arcSize=9;fillColor=#000000;strokeWidth=1;lucidId=siL8XiZfh94J;labelBackgroundColor=none;" vertex="1" parent="OAAgQT4a9lYhhXLHfehP-39">
          <mxGeometry x="321" y="170" width="200" height="60" as="geometry" />
        </mxCell>
        <mxCell id="OAAgQT4a9lYhhXLHfehP-45" value="" style="edgeStyle=orthogonalEdgeStyle;rounded=0;orthogonalLoop=1;jettySize=auto;html=1;fontSize=16;" edge="1" parent="OAAgQT4a9lYhhXLHfehP-39" source="OAAgQT4a9lYhhXLHfehP-46" target="OAAgQT4a9lYhhXLHfehP-54">
          <mxGeometry relative="1" as="geometry" />
        </mxCell>
        <mxCell id="OAAgQT4a9lYhhXLHfehP-46" value="DPT_CCR: Stock confirm received" style="html=1;overflow=block;blockSpacing=1;whiteSpace=wrap;fontSize=16;spacing=9;strokeOpacity=100;fillOpacity=0;rounded=1;absoluteArcSize=1;arcSize=9;fillColor=#000000;strokeWidth=1;lucidId=GpL8sMLPmteC;labelBackgroundColor=none;" vertex="1" parent="OAAgQT4a9lYhhXLHfehP-39">
          <mxGeometry x="561" y="170" width="200" height="60" as="geometry" />
        </mxCell>
        <mxCell id="OAAgQT4a9lYhhXLHfehP-47" style="edgeStyle=orthogonalEdgeStyle;rounded=0;orthogonalLoop=1;jettySize=auto;html=1;exitX=0.5;exitY=0;exitDx=0;exitDy=0;dashed=1;dashPattern=8 8;strokeColor=#FF0000;" edge="1" parent="OAAgQT4a9lYhhXLHfehP-39" source="OAAgQT4a9lYhhXLHfehP-48">
          <mxGeometry relative="1" as="geometry">
            <mxPoint x="300" y="200" as="targetPoint" />
          </mxGeometry>
        </mxCell>
        <mxCell id="OAAgQT4a9lYhhXLHfehP-48" value="DPT_CRT: 11833: Stock returned" style="html=1;overflow=block;blockSpacing=1;whiteSpace=wrap;fontSize=16;spacing=9;strokeOpacity=100;fillOpacity=0;rounded=1;absoluteArcSize=1;arcSize=9;fillColor=#000000;strokeWidth=1;lucidId=5BL8WdrcK.6P;labelBackgroundColor=none;" vertex="1" parent="OAAgQT4a9lYhhXLHfehP-39">
          <mxGeometry x="561" y="70" width="200" height="60" as="geometry" />
        </mxCell>
        <mxCell id="OAAgQT4a9lYhhXLHfehP-49" style="edgeStyle=orthogonalEdgeStyle;rounded=0;orthogonalLoop=1;jettySize=auto;html=1;exitX=0;exitY=0.5;exitDx=0;exitDy=0;dashed=1;dashPattern=8 8;strokeColor=#FF0000;" edge="1" parent="OAAgQT4a9lYhhXLHfehP-39" source="OAAgQT4a9lYhhXLHfehP-50">
          <mxGeometry relative="1" as="geometry">
            <mxPoint x="300" y="200" as="targetPoint" />
          </mxGeometry>
        </mxCell>
        <mxCell id="OAAgQT4a9lYhhXLHfehP-50" value="DPT_SRA: 11835: Reject assigned stock" style="html=1;overflow=block;blockSpacing=1;whiteSpace=wrap;fontSize=16;spacing=9;strokeOpacity=100;fillOpacity=0;rounded=1;absoluteArcSize=1;arcSize=9;fillColor=#000000;strokeWidth=1;lucidId=LBL8hcJfMu7N;labelBackgroundColor=none;" vertex="1" parent="OAAgQT4a9lYhhXLHfehP-39">
          <mxGeometry x="321" y="270" width="200" height="60" as="geometry" />
        </mxCell>
        <mxCell id="OAAgQT4a9lYhhXLHfehP-51" value="" style="html=1;jettySize=18;whiteSpace=wrap;fontSize=16;strokeColor=#3a414a;strokeOpacity=100;strokeWidth=1;rounded=1;arcSize=12;edgeStyle=orthogonalEdgeStyle;startArrow=none;endArrow=block;endFill=1;exitX=1.004;exitY=0.5;exitPerimeter=0;entryX=-0.004;entryY=0.5;entryPerimeter=0;lucidId=siL8WX6Wz.jX;labelBackgroundColor=none;" edge="1" parent="OAAgQT4a9lYhhXLHfehP-39" source="OAAgQT4a9lYhhXLHfehP-42" target="OAAgQT4a9lYhhXLHfehP-44">
          <mxGeometry width="100" height="100" relative="1" as="geometry">
            <Array as="points" />
          </mxGeometry>
        </mxCell>
        <mxCell id="OAAgQT4a9lYhhXLHfehP-52" value="" style="html=1;jettySize=18;whiteSpace=wrap;fontSize=16;strokeColor=#3a414a;strokeOpacity=100;strokeWidth=1;rounded=1;arcSize=12;edgeStyle=orthogonalEdgeStyle;startArrow=none;endArrow=block;endFill=1;exitX=1.004;exitY=0.5;exitPerimeter=0;entryX=-0.004;entryY=0.5;entryPerimeter=0;lucidId=GpL81wC2y2YN;labelBackgroundColor=none;" edge="1" parent="OAAgQT4a9lYhhXLHfehP-39" source="OAAgQT4a9lYhhXLHfehP-44" target="OAAgQT4a9lYhhXLHfehP-46">
          <mxGeometry width="100" height="100" relative="1" as="geometry">
            <Array as="points" />
          </mxGeometry>
        </mxCell>
        <mxCell id="OAAgQT4a9lYhhXLHfehP-53" value="" style="html=1;jettySize=18;whiteSpace=wrap;fontSize=16;strokeColor=#e81313;strokeOpacity=100;dashed=1;fixDash=1;dashPattern=8 8;strokeWidth=1;rounded=1;arcSize=12;edgeStyle=orthogonalEdgeStyle;startArrow=none;endArrow=block;endFill=1;exitX=0.5;exitY=-0.008;exitPerimeter=0;entryX=0.5;entryY=1.008;entryPerimeter=0;lucidId=5BL8zqoS5Ayx;labelBackgroundColor=none;" edge="1" parent="OAAgQT4a9lYhhXLHfehP-39" source="OAAgQT4a9lYhhXLHfehP-46" target="OAAgQT4a9lYhhXLHfehP-48">
          <mxGeometry width="100" height="100" relative="1" as="geometry">
            <Array as="points" />
          </mxGeometry>
        </mxCell>
        <mxCell id="OAAgQT4a9lYhhXLHfehP-54" value="&lt;font&gt;End&lt;/font&gt;" style="ellipse;whiteSpace=wrap;html=1;fontSize=16;" vertex="1" parent="OAAgQT4a9lYhhXLHfehP-39">
          <mxGeometry x="800" y="180" width="60" height="40" as="geometry" />
        </mxCell>
        <mxCell id="OAAgQT4a9lYhhXLHfehP-55" style="edgeStyle=orthogonalEdgeStyle;rounded=0;orthogonalLoop=1;jettySize=auto;html=1;exitX=1;exitY=0.5;exitDx=0;exitDy=0;" edge="1" parent="OAAgQT4a9lYhhXLHfehP-1" source="OAAgQT4a9lYhhXLHfehP-56">
          <mxGeometry relative="1" as="geometry">
            <mxPoint x="-1080" y="-60" as="targetPoint" />
            <Array as="points">
              <mxPoint x="-550" y="-665" />
              <mxPoint x="-550" y="-60" />
            </Array>
          </mxGeometry>
        </mxCell>
        <mxCell id="OAAgQT4a9lYhhXLHfehP-56" value="Registration Stock at HO" style="swimlane;whiteSpace=wrap;html=1;fontSize=16;startSize=30;" vertex="1" parent="OAAgQT4a9lYhhXLHfehP-1">
          <mxGeometry x="-1940" y="-840" width="1360" height="370" as="geometry">
            <mxRectangle x="-1890" y="-980" width="170" height="30" as="alternateBounds" />
          </mxGeometry>
        </mxCell>
        <mxCell id="OAAgQT4a9lYhhXLHfehP-57" value="" style="html=1;jettySize=18;whiteSpace=wrap;fontSize=16;strokeColor=#3a414a;strokeOpacity=100;strokeWidth=0.8;rounded=1;arcSize=12;edgeStyle=orthogonalEdgeStyle;startArrow=none;endArrow=block;endFill=1;exitX=1.004;exitY=0.5;exitPerimeter=0;entryX=-0.004;entryY=0.5;entryPerimeter=0;lucidId=E-K8I0MomM04;labelBackgroundColor=none;" edge="1" parent="OAAgQT4a9lYhhXLHfehP-56" source="OAAgQT4a9lYhhXLHfehP-77" target="OAAgQT4a9lYhhXLHfehP-58">
          <mxGeometry width="100" height="100" relative="1" as="geometry">
            <Array as="points" />
          </mxGeometry>
        </mxCell>
        <mxCell id="OAAgQT4a9lYhhXLHfehP-58" value="DPT_SAB: 11831: Stock assigned to branch" style="html=1;overflow=block;blockSpacing=1;whiteSpace=wrap;fontSize=16;spacing=9;strokeOpacity=100;fillOpacity=0;rounded=1;absoluteArcSize=1;arcSize=9;fillColor=#000000;strokeWidth=1;lucidId=E-K8VwSi.VNv;labelBackgroundColor=none;" vertex="1" parent="OAAgQT4a9lYhhXLHfehP-56">
          <mxGeometry x="320" y="170" width="200" height="60" as="geometry" />
        </mxCell>
        <mxCell id="OAAgQT4a9lYhhXLHfehP-59" value="" style="html=1;jettySize=18;whiteSpace=wrap;fontSize=16;strokeColor=#3a414a;strokeOpacity=100;strokeWidth=0.8;rounded=1;arcSize=12;edgeStyle=orthogonalEdgeStyle;startArrow=none;endArrow=block;endFill=1;exitX=1.004;exitY=0.5;exitPerimeter=0;entryX=-0.004;entryY=0.5;entryPerimeter=0;lucidId=B_K8auC.OmKs;labelBackgroundColor=none;" edge="1" parent="OAAgQT4a9lYhhXLHfehP-56" source="OAAgQT4a9lYhhXLHfehP-58" target="OAAgQT4a9lYhhXLHfehP-60">
          <mxGeometry width="100" height="100" relative="1" as="geometry">
            <Array as="points" />
          </mxGeometry>
        </mxCell>
        <mxCell id="OAAgQT4a9lYhhXLHfehP-60" value="DPT_CCR: Stock confirm received (branch confirm)" style="html=1;overflow=block;blockSpacing=1;whiteSpace=wrap;fontSize=16;spacing=9;strokeOpacity=100;fillOpacity=0;rounded=1;absoluteArcSize=1;arcSize=9;fillColor=#000000;strokeWidth=1;lucidId=B_K8KtoC-B.U;labelBackgroundColor=none;" vertex="1" parent="OAAgQT4a9lYhhXLHfehP-56">
          <mxGeometry x="560" y="170" width="200" height="60" as="geometry" />
        </mxCell>
        <mxCell id="OAAgQT4a9lYhhXLHfehP-61" value="" style="html=1;jettySize=18;whiteSpace=wrap;fontSize=16;strokeColor=#3a414a;strokeOpacity=100;strokeWidth=0.8;rounded=1;arcSize=12;edgeStyle=orthogonalEdgeStyle;startArrow=none;endArrow=block;endFill=1;entryX=0;entryY=0.5;lucidId=f.K8d7xa3UE9;labelBackgroundColor=none;entryDx=0;entryDy=0;" edge="1" parent="OAAgQT4a9lYhhXLHfehP-56" target="OAAgQT4a9lYhhXLHfehP-63">
          <mxGeometry width="100" height="100" relative="1" as="geometry">
            <Array as="points" />
            <mxPoint x="760" y="200.09" as="sourcePoint" />
            <mxPoint x="833.4380000000001" y="199.89" as="targetPoint" />
          </mxGeometry>
        </mxCell>
        <mxCell id="OAAgQT4a9lYhhXLHfehP-62" value="" style="edgeStyle=orthogonalEdgeStyle;rounded=0;orthogonalLoop=1;jettySize=auto;html=1;" edge="1" parent="OAAgQT4a9lYhhXLHfehP-56" source="OAAgQT4a9lYhhXLHfehP-63" target="OAAgQT4a9lYhhXLHfehP-66">
          <mxGeometry relative="1" as="geometry" />
        </mxCell>
        <mxCell id="OAAgQT4a9lYhhXLHfehP-63" value="DPT_SAT: Stock assign to Staff" style="html=1;overflow=block;blockSpacing=1;whiteSpace=wrap;fontSize=16;spacing=9;strokeOpacity=100;fillOpacity=0;rounded=1;absoluteArcSize=1;arcSize=9;fillColor=#000000;strokeWidth=1;lucidId=f.K8ricRqGn2;labelBackgroundColor=none;" vertex="1" parent="OAAgQT4a9lYhhXLHfehP-56">
          <mxGeometry x="800" y="170" width="200" height="60" as="geometry" />
        </mxCell>
        <mxCell id="OAAgQT4a9lYhhXLHfehP-64" value="" style="edgeStyle=orthogonalEdgeStyle;rounded=0;orthogonalLoop=1;jettySize=auto;html=1;fontSize=16;" edge="1" parent="OAAgQT4a9lYhhXLHfehP-56" source="OAAgQT4a9lYhhXLHfehP-66" target="OAAgQT4a9lYhhXLHfehP-80">
          <mxGeometry relative="1" as="geometry" />
        </mxCell>
        <mxCell id="OAAgQT4a9lYhhXLHfehP-65" value="" style="edgeStyle=orthogonalEdgeStyle;rounded=0;orthogonalLoop=1;jettySize=auto;html=1;dashed=1;dashPattern=8 8;strokeColor=#FF0000;" edge="1" parent="OAAgQT4a9lYhhXLHfehP-56" source="OAAgQT4a9lYhhXLHfehP-66" target="OAAgQT4a9lYhhXLHfehP-74">
          <mxGeometry relative="1" as="geometry" />
        </mxCell>
        <mxCell id="OAAgQT4a9lYhhXLHfehP-66" value="DPT_CCR: Stock confirm received (teller confirm)" style="html=1;overflow=block;blockSpacing=1;whiteSpace=wrap;fontSize=16;spacing=9;strokeOpacity=100;fillOpacity=0;rounded=1;absoluteArcSize=1;arcSize=9;fillColor=#000000;strokeWidth=1;lucidId=t.K89AFciOv3;labelBackgroundColor=none;" vertex="1" parent="OAAgQT4a9lYhhXLHfehP-56">
          <mxGeometry x="1040" y="170" width="200" height="60" as="geometry" />
        </mxCell>
        <mxCell id="OAAgQT4a9lYhhXLHfehP-67" value="" style="html=1;jettySize=18;whiteSpace=wrap;fontSize=16;strokeColor=#FF0000;strokeOpacity=100;dashed=1;fixDash=1;dashPattern=8 8;strokeWidth=1;rounded=1;arcSize=12;edgeStyle=orthogonalEdgeStyle;startArrow=none;endArrow=block;endFill=1;exitX=0.5;exitY=1.008;exitPerimeter=0;entryX=0.5;entryY=-0.008;entryPerimeter=0;lucidId=7~K8s93Qj5ms;labelBackgroundColor=none;" edge="1" parent="OAAgQT4a9lYhhXLHfehP-56" source="OAAgQT4a9lYhhXLHfehP-58" target="OAAgQT4a9lYhhXLHfehP-70">
          <mxGeometry width="100" height="100" relative="1" as="geometry">
            <Array as="points" />
          </mxGeometry>
        </mxCell>
        <mxCell id="OAAgQT4a9lYhhXLHfehP-68" value="" style="html=1;jettySize=18;whiteSpace=wrap;fontSize=16;strokeColor=#FF0000;strokeOpacity=100;dashed=1;fixDash=1;dashPattern=8 8;strokeWidth=1;rounded=1;arcSize=12;edgeStyle=orthogonalEdgeStyle;startArrow=none;endArrow=block;endFill=1;exitX=0.5;exitY=1.008;exitPerimeter=0;entryX=0.5;entryY=-0.008;entryPerimeter=0;lucidId=SdL8UjF9IZxt;labelBackgroundColor=none;" edge="1" parent="OAAgQT4a9lYhhXLHfehP-56" source="OAAgQT4a9lYhhXLHfehP-63" target="OAAgQT4a9lYhhXLHfehP-76">
          <mxGeometry width="100" height="100" relative="1" as="geometry">
            <Array as="points" />
          </mxGeometry>
        </mxCell>
        <mxCell id="OAAgQT4a9lYhhXLHfehP-69" style="edgeStyle=orthogonalEdgeStyle;rounded=0;orthogonalLoop=1;jettySize=auto;html=1;dashed=1;dashPattern=8 8;strokeColor=#FF0000;" edge="1" parent="OAAgQT4a9lYhhXLHfehP-56" source="OAAgQT4a9lYhhXLHfehP-70">
          <mxGeometry relative="1" as="geometry">
            <mxPoint x="300" y="200.09" as="targetPoint" />
          </mxGeometry>
        </mxCell>
        <mxCell id="OAAgQT4a9lYhhXLHfehP-70" value="DPT_SRA: 11835: Reject assigned stock" style="html=1;overflow=block;blockSpacing=1;whiteSpace=wrap;fontSize=16;spacing=9;strokeOpacity=100;fillOpacity=0;rounded=1;absoluteArcSize=1;arcSize=9;fillColor=#000000;strokeWidth=1;lucidId=7~K8_bC7LJLh;labelBackgroundColor=none;" vertex="1" parent="OAAgQT4a9lYhhXLHfehP-56">
          <mxGeometry x="320" y="270" width="200" height="60" as="geometry" />
        </mxCell>
        <mxCell id="OAAgQT4a9lYhhXLHfehP-71" style="edgeStyle=orthogonalEdgeStyle;rounded=0;orthogonalLoop=1;jettySize=auto;html=1;exitX=0.5;exitY=0;exitDx=0;exitDy=0;dashed=1;dashPattern=8 8;strokeColor=#FF0000;" edge="1" parent="OAAgQT4a9lYhhXLHfehP-56" source="OAAgQT4a9lYhhXLHfehP-72">
          <mxGeometry relative="1" as="geometry">
            <mxPoint x="300" y="200.09" as="targetPoint" />
          </mxGeometry>
        </mxCell>
        <mxCell id="OAAgQT4a9lYhhXLHfehP-72" value="DPT_CRT: 11833: Stock returned" style="html=1;overflow=block;blockSpacing=1;whiteSpace=wrap;fontSize=16;spacing=9;strokeOpacity=100;rounded=1;absoluteArcSize=1;arcSize=9;strokeWidth=1;lucidId=3bL8yir.PB5-;labelBackgroundColor=none;" vertex="1" parent="OAAgQT4a9lYhhXLHfehP-56">
          <mxGeometry x="560" y="70.09" width="200" height="60" as="geometry" />
        </mxCell>
        <mxCell id="OAAgQT4a9lYhhXLHfehP-73" style="edgeStyle=orthogonalEdgeStyle;rounded=0;orthogonalLoop=1;jettySize=auto;html=1;exitX=0;exitY=0.5;exitDx=0;exitDy=0;dashed=1;dashPattern=8 8;strokeColor=#FF0000;" edge="1" parent="OAAgQT4a9lYhhXLHfehP-56" source="OAAgQT4a9lYhhXLHfehP-74">
          <mxGeometry relative="1" as="geometry">
            <mxPoint x="780" y="200" as="targetPoint" />
          </mxGeometry>
        </mxCell>
        <mxCell id="OAAgQT4a9lYhhXLHfehP-74" value="DPT_CRT: 11833: Stock returned" style="html=1;overflow=block;blockSpacing=1;whiteSpace=wrap;fontSize=16;spacing=9;strokeOpacity=100;fillOpacity=100;rounded=1;absoluteArcSize=1;arcSize=9;fillColor=#ffffff;strokeWidth=1;lucidId=ueL8av5Dy-su;labelBackgroundColor=none;" vertex="1" parent="OAAgQT4a9lYhhXLHfehP-56">
          <mxGeometry x="1040" y="70.09" width="200" height="60" as="geometry" />
        </mxCell>
        <mxCell id="OAAgQT4a9lYhhXLHfehP-75" style="edgeStyle=orthogonalEdgeStyle;rounded=0;orthogonalLoop=1;jettySize=auto;html=1;exitX=0.5;exitY=1;exitDx=0;exitDy=0;dashed=1;dashPattern=8 8;strokeColor=#FF0000;" edge="1" parent="OAAgQT4a9lYhhXLHfehP-56" source="OAAgQT4a9lYhhXLHfehP-76">
          <mxGeometry relative="1" as="geometry">
            <mxPoint x="780" y="200" as="targetPoint" />
          </mxGeometry>
        </mxCell>
        <mxCell id="OAAgQT4a9lYhhXLHfehP-76" value="DPT_SRA: 11835: Reject assigned stock" style="html=1;overflow=block;blockSpacing=1;whiteSpace=wrap;fontSize=16;spacing=9;strokeOpacity=100;fillOpacity=0;rounded=1;absoluteArcSize=1;arcSize=9;fillColor=#000000;strokeWidth=1;lucidId=SdL8HdBOTPbP;labelBackgroundColor=none;" vertex="1" parent="OAAgQT4a9lYhhXLHfehP-56">
          <mxGeometry x="800" y="270" width="200" height="60" as="geometry" />
        </mxCell>
        <mxCell id="OAAgQT4a9lYhhXLHfehP-77" value="DPT_SRG: Stock registration" style="html=1;overflow=block;blockSpacing=1;whiteSpace=wrap;fontSize=16;spacing=9;strokeOpacity=100;fillOpacity=0;rounded=1;absoluteArcSize=1;arcSize=9;fillColor=#000000;strokeWidth=1;lucidId=t-K8BA6zqQXJ;labelBackgroundColor=none;" vertex="1" parent="OAAgQT4a9lYhhXLHfehP-56">
          <mxGeometry x="120" y="170" width="160" height="60" as="geometry" />
        </mxCell>
        <mxCell id="OAAgQT4a9lYhhXLHfehP-78" value="" style="edgeStyle=orthogonalEdgeStyle;rounded=0;orthogonalLoop=1;jettySize=auto;html=1;fontSize=16;" edge="1" parent="OAAgQT4a9lYhhXLHfehP-56" source="OAAgQT4a9lYhhXLHfehP-79" target="OAAgQT4a9lYhhXLHfehP-77">
          <mxGeometry relative="1" as="geometry" />
        </mxCell>
        <mxCell id="OAAgQT4a9lYhhXLHfehP-79" value="&lt;font&gt;Begin&lt;/font&gt;" style="ellipse;whiteSpace=wrap;html=1;fontSize=16;" vertex="1" parent="OAAgQT4a9lYhhXLHfehP-56">
          <mxGeometry x="20" y="180.09" width="60" height="40" as="geometry" />
        </mxCell>
        <mxCell id="OAAgQT4a9lYhhXLHfehP-80" value="&lt;font&gt;End&lt;/font&gt;" style="ellipse;whiteSpace=wrap;html=1;fontSize=16;" vertex="1" parent="OAAgQT4a9lYhhXLHfehP-56">
          <mxGeometry x="1280" y="180" width="60" height="40" as="geometry" />
        </mxCell>
        <mxCell id="OAAgQT4a9lYhhXLHfehP-81" style="edgeStyle=orthogonalEdgeStyle;rounded=0;orthogonalLoop=1;jettySize=auto;html=1;exitX=0.5;exitY=0;exitDx=0;exitDy=0;entryX=0.5;entryY=1;entryDx=0;entryDy=0;dashed=1;dashPattern=8 8;strokeColor=#FF0000;" edge="1" parent="OAAgQT4a9lYhhXLHfehP-56" source="OAAgQT4a9lYhhXLHfehP-60" target="OAAgQT4a9lYhhXLHfehP-72">
          <mxGeometry relative="1" as="geometry" />
        </mxCell>
        <mxCell id="OAAgQT4a9lYhhXLHfehP-82" value="Other transactions" style="swimlane;whiteSpace=wrap;html=1;fontSize=16;startSize=30;" vertex="1" parent="OAAgQT4a9lYhhXLHfehP-1">
          <mxGeometry x="-1680" y="250" width="440" height="370" as="geometry">
            <mxRectangle x="-1700" y="280" width="140" height="30" as="alternateBounds" />
          </mxGeometry>
        </mxCell>
        <mxCell id="OAAgQT4a9lYhhXLHfehP-83" style="edgeStyle=orthogonalEdgeStyle;rounded=0;orthogonalLoop=1;jettySize=auto;html=1;exitX=1;exitY=0.5;exitDx=0;exitDy=0;entryX=0;entryY=0.5;entryDx=0;entryDy=0;fontSize=16;" edge="1" parent="OAAgQT4a9lYhhXLHfehP-82" source="OAAgQT4a9lYhhXLHfehP-84" target="OAAgQT4a9lYhhXLHfehP-85">
          <mxGeometry relative="1" as="geometry" />
        </mxCell>
        <mxCell id="OAAgQT4a9lYhhXLHfehP-84" value="DPT_EMK: Hold balance" style="rounded=1;whiteSpace=wrap;html=1;fontSize=16;" vertex="1" parent="OAAgQT4a9lYhhXLHfehP-82">
          <mxGeometry x="20" y="50" width="180" height="60" as="geometry" />
        </mxCell>
        <mxCell id="OAAgQT4a9lYhhXLHfehP-85" value="DPT_ERL: Release hold balance" style="rounded=1;whiteSpace=wrap;html=1;fontSize=16;" vertex="1" parent="OAAgQT4a9lYhhXLHfehP-82">
          <mxGeometry x="240" y="50" width="180" height="60" as="geometry" />
        </mxCell>
        <mxCell id="OAAgQT4a9lYhhXLHfehP-86" style="edgeStyle=orthogonalEdgeStyle;rounded=0;orthogonalLoop=1;jettySize=auto;html=1;exitX=1;exitY=0.5;exitDx=0;exitDy=0;entryX=0;entryY=0.5;entryDx=0;entryDy=0;fontSize=16;" edge="1" parent="OAAgQT4a9lYhhXLHfehP-82" source="OAAgQT4a9lYhhXLHfehP-87" target="OAAgQT4a9lYhhXLHfehP-88">
          <mxGeometry relative="1" as="geometry" />
        </mxCell>
        <mxCell id="OAAgQT4a9lYhhXLHfehP-87" value="DPT_BLK: Block account" style="rounded=1;whiteSpace=wrap;html=1;fontSize=16;" vertex="1" parent="OAAgQT4a9lYhhXLHfehP-82">
          <mxGeometry x="20" y="130" width="180" height="60" as="geometry" />
        </mxCell>
        <mxCell id="OAAgQT4a9lYhhXLHfehP-88" value="DPT_RLS: Release block account" style="rounded=1;whiteSpace=wrap;html=1;fontSize=16;" vertex="1" parent="OAAgQT4a9lYhhXLHfehP-82">
          <mxGeometry x="240" y="130" width="180" height="60" as="geometry" />
        </mxCell>
        <mxCell id="OAAgQT4a9lYhhXLHfehP-89" value="DPT_CAS: Change account status" style="rounded=1;whiteSpace=wrap;html=1;fontSize=16;" vertex="1" parent="OAAgQT4a9lYhhXLHfehP-82">
          <mxGeometry x="20" y="210" width="180" height="60" as="geometry" />
        </mxCell>
        <mxCell id="OAAgQT4a9lYhhXLHfehP-90" value="DPT_HIS: Transaction history inquiry" style="rounded=1;whiteSpace=wrap;html=1;fontSize=16;" vertex="1" parent="OAAgQT4a9lYhhXLHfehP-82">
          <mxGeometry x="240" y="290" width="180" height="60" as="geometry" />
        </mxCell>
        <mxCell id="OAAgQT4a9lYhhXLHfehP-91" value="DPT_FOC: Fee collection by cash" style="rounded=1;whiteSpace=wrap;html=1;fontSize=16;" vertex="1" parent="OAAgQT4a9lYhhXLHfehP-82">
          <mxGeometry x="240" y="210" width="180" height="60" as="geometry" />
        </mxCell>
        <mxCell id="OAAgQT4a9lYhhXLHfehP-92" value="DPT_FEE: 1185: Fee collection by transfer" style="rounded=1;whiteSpace=wrap;html=1;fontSize=16;" vertex="1" parent="OAAgQT4a9lYhhXLHfehP-82">
          <mxGeometry x="20" y="290" width="180" height="60" as="geometry" />
        </mxCell>
        <mxCell id="OAAgQT4a9lYhhXLHfehP-93" value="Other passbook transactions" style="swimlane;whiteSpace=wrap;html=1;fontSize=16;startSize=30;" vertex="1" parent="OAAgQT4a9lYhhXLHfehP-1">
          <mxGeometry x="-1680" y="650" width="440" height="110" as="geometry" />
        </mxCell>
        <mxCell id="OAAgQT4a9lYhhXLHfehP-94" style="edgeStyle=orthogonalEdgeStyle;rounded=0;orthogonalLoop=1;jettySize=auto;html=1;exitX=1;exitY=0.5;exitDx=0;exitDy=0;entryX=0;entryY=0.5;entryDx=0;entryDy=0;" edge="1" parent="OAAgQT4a9lYhhXLHfehP-93">
          <mxGeometry relative="1" as="geometry">
            <mxPoint x="170" y="111.13999999999987" as="sourcePoint" />
          </mxGeometry>
        </mxCell>
        <mxCell id="OAAgQT4a9lYhhXLHfehP-95" style="edgeStyle=orthogonalEdgeStyle;rounded=0;orthogonalLoop=1;jettySize=auto;html=1;exitX=1;exitY=0.5;exitDx=0;exitDy=0;entryX=0;entryY=0.5;entryDx=0;entryDy=0;fontSize=16;" edge="1" parent="OAAgQT4a9lYhhXLHfehP-93">
          <mxGeometry relative="1" as="geometry">
            <mxPoint x="240" y="80" as="targetPoint" />
          </mxGeometry>
        </mxCell>
        <mxCell id="OAAgQT4a9lYhhXLHfehP-96" value="DPT_CTS: Change status of stock" style="rounded=1;whiteSpace=wrap;html=1;fontSize=16;" vertex="1" parent="OAAgQT4a9lYhhXLHfehP-93">
          <mxGeometry x="20" y="50" width="400" height="40" as="geometry" />
        </mxCell>
        <mxCell id="OAAgQT4a9lYhhXLHfehP-97" style="edgeStyle=orthogonalEdgeStyle;rounded=0;orthogonalLoop=1;jettySize=auto;html=1;entryX=0;entryY=0.5;entryDx=0;entryDy=0;fontSize=16;" edge="1" parent="OAAgQT4a9lYhhXLHfehP-1" source="OAAgQT4a9lYhhXLHfehP-98" target="OAAgQT4a9lYhhXLHfehP-102">
          <mxGeometry relative="1" as="geometry" />
        </mxCell>
        <mxCell id="OAAgQT4a9lYhhXLHfehP-98" value="Close &lt;span style=&quot;background-color: transparent; color: light-dark(rgb(0, 0, 0), rgb(255, 255, 255));&quot;&gt;transactions&lt;/span&gt;" style="swimlane;whiteSpace=wrap;html=1;startSize=30;fontSize=16;" vertex="1" parent="OAAgQT4a9lYhhXLHfehP-1">
          <mxGeometry x="-1680" y="790" width="440" height="230" as="geometry" />
        </mxCell>
        <mxCell id="OAAgQT4a9lYhhXLHfehP-99" value="DPT_CLS: Close deposit account" style="rounded=1;whiteSpace=wrap;html=1;fontSize=16;" vertex="1" parent="OAAgQT4a9lYhhXLHfehP-98">
          <mxGeometry x="20" y="50" width="400" height="40" as="geometry" />
        </mxCell>
        <mxCell id="OAAgQT4a9lYhhXLHfehP-100" value="DPT_DLS: Close deposit account by deposit" style="rounded=1;whiteSpace=wrap;html=1;fontSize=16;" vertex="1" parent="OAAgQT4a9lYhhXLHfehP-98">
          <mxGeometry x="20" y="110" width="400" height="40" as="geometry" />
        </mxCell>
        <mxCell id="OAAgQT4a9lYhhXLHfehP-101" value="DPT_MLS:Close deposit account by miscellaneous" style="rounded=1;whiteSpace=wrap;html=1;fontSize=16;" vertex="1" parent="OAAgQT4a9lYhhXLHfehP-98">
          <mxGeometry x="20" y="170" width="400" height="40" as="geometry" />
        </mxCell>
        <mxCell id="OAAgQT4a9lYhhXLHfehP-102" value="&lt;font&gt;End&lt;/font&gt;" style="ellipse;whiteSpace=wrap;html=1;fontSize=16;" vertex="1" parent="OAAgQT4a9lYhhXLHfehP-1">
          <mxGeometry x="-1200" y="885" width="60" height="40" as="geometry" />
        </mxCell>
        <mxCell id="OAAgQT4a9lYhhXLHfehP-103" style="edgeStyle=orthogonalEdgeStyle;rounded=0;orthogonalLoop=1;jettySize=auto;html=1;exitX=1;exitY=0.5;exitDx=0;exitDy=0;entryX=0.009;entryY=0.5;entryDx=0;entryDy=0;entryPerimeter=0;" edge="1" parent="OAAgQT4a9lYhhXLHfehP-1" source="OAAgQT4a9lYhhXLHfehP-2" target="OAAgQT4a9lYhhXLHfehP-5">
          <mxGeometry relative="1" as="geometry">
            <mxPoint x="-2960" y="96" as="targetPoint" />
          </mxGeometry>
        </mxCell>
        <mxCell id="OAAgQT4a9lYhhXLHfehP-104" value="" style="endArrow=classic;html=1;rounded=0;exitX=0.989;exitY=0.495;exitDx=0;exitDy=0;exitPerimeter=0;entryX=0;entryY=0.5;entryDx=0;entryDy=0;" edge="1" parent="OAAgQT4a9lYhhXLHfehP-1" source="OAAgQT4a9lYhhXLHfehP-17" target="OAAgQT4a9lYhhXLHfehP-14">
          <mxGeometry width="50" height="50" relative="1" as="geometry">
            <mxPoint x="-2080" y="90" as="sourcePoint" />
            <mxPoint x="-2030" y="40" as="targetPoint" />
          </mxGeometry>
        </mxCell>
        <mxCell id="OAAgQT4a9lYhhXLHfehP-105" value="&lt;b&gt;YES&lt;/b&gt;" style="edgeLabel;html=1;align=center;verticalAlign=middle;resizable=0;points=[];fontSize=16;" vertex="1" connectable="0" parent="OAAgQT4a9lYhhXLHfehP-104">
          <mxGeometry x="-0.0588" y="-1" relative="1" as="geometry">
            <mxPoint x="-3" y="-2" as="offset" />
          </mxGeometry>
        </mxCell>
      </root>
    </mxGraphModel>
  </diagram>
</mxfile>
